<svg xmlns="http://www.w3.org/2000/svg" class="img-fluid site-logo" width="194.3" height="80" viewBox="0 0 137.8 56.7" id="psi-logo">
  <g transform="translate(-11 -14.2)" id="psi-svg-logo-cloud">
    <path d="M55.3 66.7c-.3 0-.6.2-.6.5s.3.6.6.6.6-.3.6-.6-.3-.5-.6-.5zM58 65.8c.3 0 .6-.3.6-.6s-.3-.6-.6-.6-.5.3-.5.6.2.6.5.6zM57.5 66c-.3 0-.6.3-.6.6s.3.5.6.5.6-.2.6-.5-.3-.6-.6-.6ZM55.8 65.5c-.3 0-.6.3-.6.6s.3.5.6.5.6-.2.6-.5c0-.4-.3-.6-.6-.6zM54.4 65.8c.3 0 .5-.3.5-.6s-.2-.6-.5-.6c-.4 0-.6.3-.6.6s.3.6.6.6zM54.9 66.5c0-.3-.3-.6-.6-.6s-.6.3-.6.6.3.6.6.6.6-.3.6-.6zM53 66.1c.4 0 .6-.3.6-.6s-.2-.5-.5-.5c-.4 0-.6.2-.6.5 0 .4.2.6.6.6zM53 68c.4 0 .6-.3.6-.6s-.2-.6-.5-.6c-.4 0-.6.3-.6.6s.2.6.6.6zM54.6 63.4c-.3 0-.6.2-.6.6 0 .3.3.5.6.5s.6-.2.6-.6c0-.3-.3-.5-.6-.5zM52.2 67c0-.4-.2-.6-.5-.6-.4 0-.6.2-.6.5s.3.6.6.6.5-.3.5-.6zM51.7 66.2c.3 0 .6-.3.6-.6s-.3-.6-.6-.6-.6.3-.6.6.3.6.6.6zM51.3 64.4c0-.3-.2-.6-.6-.6-.3 0-.5.3-.5.6s.2.5.5.5c.4 0 .6-.2.6-.5z"/>
    <path d="M54 64.1c0-.3-.3-.6-.6-.6s-.6.3-.6.6.3.6.6.6.6-.3.6-.6zM52.7 64.3c0-.3-.2-.6-.5-.6-.4 0-.6.2-.6.6 0 .3.2.5.6.5.3 0 .5-.2.5-.5zM52.6 62.4c-.3 0-.6.2-.6.6 0 .3.3.5.6.5s.6-.2.6-.5c0-.4-.3-.6-.6-.6zM51.9 63.2c0-.3-.3-.5-.6-.5s-.5.2-.5.5c0 .4.2.6.5.6.4 0 .6-.2.6-.6zM52.3 61.1c-.3 0-.5.3-.5.6s.2.6.5.6c.4 0 .6-.3.6-.6s-.2-.6-.6-.6zM53.7 62.3c-.3 0-.5.2-.5.6 0 .3.2.5.5.5s.6-.2.6-.5c0-.4-.3-.6-.6-.6zM57.2 65.1c0-.3-.2-.5-.5-.5-.4 0-.6.2-.6.5 0 .4.3.6.6.6s.5-.3.5-.6zM65.8 61.8c-.3 0-.6.2-.6.6 0 .3.2.5.6.5.3 0 .5-.2.5-.5 0-.4-.2-.6-.5-.6zM68.8 61.4c-.3 0-.5.3-.5.6s.2.5.5.5c.4 0 .6-.2.6-.5s-.2-.6-.6-.6z"/>
    <path d="M55.6 64c-.3 0-.6.2-.6.6 0 .3.3.5.6.5s.6-.2.6-.5c0-.4-.3-.6-.6-.6z"/>
    <circle cx="51.2" cy="59.5" r=".6"/>
    <path d="M52.1 59.4c0 .3.3.6.6.6s.6-.2.6-.6c0-.3-.3-.5-.6-.5s-.6.2-.6.5zM42.4 59.8c.3 0 .6-.3.6-.6s-.3-.6-.6-.6-.5.3-.5.6.2.6.5.6zM40.8 58.8c.3 0 .6-.2.6-.6 0-.3-.3-.5-.6-.5s-.6.2-.6.5c0 .4.3.6.6.6zM43.6 58.3c.3 0 .6-.2.6-.5 0-.4-.3-.6-.6-.6s-.6.2-.6.6c0 .3.3.5.6.5zM42 58.5c.4 0 .6-.3.6-.6s-.2-.6-.5-.6-.6.3-.6.6.3.6.6.6zM40.4 56.6c.3 0 .6-.2.6-.6 0-.3-.3-.5-.6-.5s-.6.2-.6.5c0 .4.3.6.6.6zM41.5 56.1c-.3 0-.6.3-.6.6s.2.6.6.6c.3 0 .5-.3.5-.6s-.2-.6-.5-.6zM39.3 57.1c-.3 0-.5.3-.5.6s.2.5.5.5.6-.2.6-.5-.3-.6-.6-.6zM39.7 53.1c.3 0 .6-.2.6-.6 0-.3-.2-.5-.6-.5-.3 0-.5.2-.5.5 0 .4.2.6.5.6zM39.3 50.4c0 .3.2.5.5.5s.6-.2.6-.5c0-.4-.3-.6-.6-.6s-.5.3-.5.6zM37.3 53c0 .3.3.6.6.6s.6-.3.6-.6-.3-.5-.6-.5-.6.2-.6.5zM37 53.9c0-.3-.2-.6-.5-.6-.4 0-.6.3-.6.6s.2.6.6.6c.3 0 .5-.3.5-.6z"/>
    <circle cx="36.3" cy="52.3" r=".6"/>
    <path d="M34.2 52.7c0-.3-.3-.5-.6-.5s-.6.2-.6.5.3.6.6.6.6-.3.6-.6zM32.5 51.5c.3 0 .6-.3.6-.6s-.3-.5-.6-.5-.6.2-.6.5.3.6.6.6zM34.4 49.7c0-.3-.2-.6-.5-.6-.4 0-.6.3-.6.6s.3.6.6.6.5-.3.5-.6zM39.6 55c.3 0 .6-.3.6-.6s-.3-.6-.6-.6-.6.3-.6.6.3.6.6.6zM37.7 51.3c0 .3.2.6.5.6.4 0 .6-.3.6-.6s-.2-.6-.6-.6c-.3 0-.5.3-.5.6z"/>
    <circle cx="28.6" cy="49.3" r=".6"/>
    <path d="M28.5 51.8c0-.3-.2-.5-.6-.5-.3 0-.5.2-.5.5 0 .4.2.6.6.6.3 0 .5-.3.5-.6zM32 53c0-.4-.3-.7-.6-.7s-.6.3-.6.6.3.6.6.6.6-.3.6-.6zM29.9 50.7c0 .3.2.5.6.5.3 0 .5-.2.5-.5 0-.4-.2-.6-.5-.6-.4 0-.6.2-.6.6zM28.1 54.2c0 .3.3.6.6.6s.6-.3.6-.6-.3-.6-.6-.6-.6.3-.6.6zM38.1 49c0 .4.3.6.6.6s.6-.2.6-.5c0-.4-.3-.6-.6-.6s-.6.3-.6.6zM37 50.5c.3 0 .6-.2.6-.5 0-.4-.3-.6-.6-.6s-.5.2-.5.6c0 .3.2.5.5.5zM39 47.9c.3 0 .6-.3.6-.6s-.2-.6-.6-.6c-.3 0-.5.3-.5.6s.2.6.5.6z"/>
    <circle cx="37.1" cy="47.1" r=".6"/>
    <path d="M37.2 45.5c0 .3.2.5.5.5.4 0 .6-.2.6-.5 0-.4-.2-.6-.6-.6-.3 0-.5.3-.5.6z"/>
    <circle cx="39.1" cy="43.4" r=".6"/>
    <path d="M41.3 48.8c0-.3-.3-.6-.6-.6s-.6.3-.6.6.3.6.6.6.6-.3.6-.6zM41.6 47.8c0 .3.3.6.6.6s.6-.3.6-.6-.3-.5-.6-.5-.6.2-.6.5zM40.1 46.3c0 .3.3.5.6.5s.6-.2.6-.5-.3-.6-.6-.6-.6.3-.6.6zM43.4 49.2c0 .3.3.6.6.6s.5-.3.5-.6-.2-.6-.5-.6-.6.3-.6.6zM42.3 49c-.3 0-.6.2-.6.5s.3.6.6.6.6-.3.6-.6-.3-.6-.6-.6zM42.8 46.4c0 .3.2.5.5.5.4 0 .6-.2.6-.5 0-.4-.2-.6-.6-.6-.3 0-.5.2-.5.6zM46.4 47.7c-.3 0-.6.3-.6.6s.3.6.6.6.6-.3.6-.6-.3-.6-.6-.6zM42.4 43.3c0 .3.2.6.6.6.3 0 .5-.3.5-.6s-.2-.6-.5-.6c-.4 0-.6.3-.6.6zM45.8 46c-.4 0-.6.2-.6.5s.2.6.5.6c.4 0 .6-.3.6-.6s-.2-.6-.5-.6zM44.5 48.5c.3 0 .5-.2.5-.5 0-.4-.2-.6-.5-.6s-.6.2-.6.6c0 .3.3.5.6.5zM43.2 50.8c0-.4-.2-.6-.5-.6-.4 0-.6.2-.6.5 0 .4.3.6.6.6s.5-.2.5-.5zM41.1 50.8c-.3 0-.5.3-.5.6s.2.6.5.6c.4 0 .6-.3.6-.6s-.2-.6-.6-.6zM43.4 53c.3 0 .5-.3.5-.6s-.2-.5-.5-.5c-.4 0-.6.2-.6.5 0 .4.3.6.6.6zM41.5 52.7c0 .3.3.6.6.6s.6-.3.6-.6-.3-.6-.6-.6-.6.3-.6.6zM44.4 50.4c-.4 0-.6.3-.6.6s.2.6.6.6c.3 0 .5-.3.5-.6s-.2-.6-.5-.6zM41.5 53.8c0-.4-.3-.6-.6-.6s-.5.2-.5.5c0 .4.2.6.5.6.4 0 .6-.2.6-.5zM43 54.1c0-.3-.2-.6-.5-.6-.4 0-.6.3-.6.6s.2.6.6.6c.3 0 .5-.3.5-.6zM44.6 53.8c.3 0 .6-.3.6-.6s-.3-.6-.6-.6-.6.3-.6.6.3.5.6.5zM45.4 49.2c-.3 0-.6.3-.6.6s.2.6.6.6c.3 0 .5-.3.5-.6s-.2-.6-.5-.6zM46.1 52.7c-.3 0-.5.2-.5.5 0 .4.2.6.5.6.4 0 .6-.2.6-.5 0-.4-.3-.6-.6-.6zM46 50.4c-.3 0-.6.2-.6.6 0 .3.3.5.6.5s.6-.2.6-.5c0-.4-.3-.6-.6-.6zM45 52.2c0 .3.2.5.5.5s.5-.2.5-.5c0-.4-.2-.6-.5-.6s-.6.2-.6.6zM48.1 53.1c0-.3-.3-.6-.6-.6s-.5.3-.5.6.2.6.5.6c.4 0 .6-.3.6-.6zM44.8 56.3c.3 0 .6-.3.6-.6s-.3-.6-.6-.6-.6.3-.6.6.3.6.6.6zM43 55.4c0 .3.3.5.6.5s.5-.2.5-.5c0-.4-.2-.6-.5-.6-.4 0-.6.2-.6.6zM43 57c.3 0 .6-.2.6-.5s-.3-.6-.6-.6-.5.3-.5.6.2.6.5.6zM44.3 54c0-.2-.2-.5-.5-.5-.4 0-.6.3-.6.6s.2.5.5.5c.4 0 .6-.2.6-.5zM41.6 54.5c-.3 0-.6.3-.6.6s.2.6.6.6c.3 0 .5-.3.5-.6s-.2-.6-.5-.6zM46.4 56.4c0-.3-.3-.5-.6-.5s-.6.2-.6.5c0 .4.3.6.6.6s.6-.2.6-.6zM46 55.8c.3 0 .6-.2.6-.6 0-.3-.3-.5-.6-.5s-.5.2-.5.5c0 .4.2.6.5.6z"/>
    <path d="M45.9 54.3c0-.3-.3-.6-.6-.6s-.6.3-.6.6.3.6.6.6.6-.3.6-.6zM43.3 61.5c.3 0 .5-.3.5-.6s-.2-.5-.5-.5-.6.2-.6.5c0 .4.3.6.6.6zM42.4 61.3c0-.4-.2-.6-.5-.6-.4 0-.6.2-.6.5 0 .4.2.6.6.6.3 0 .5-.2.5-.5zM39 63.6c-.2 0-.5.2-.5.5 0 .4.3.6.6.6s.6-.2.6-.6c0-.3-.3-.5-.6-.5zM37.8 63.2c.3 0 .5-.2.5-.6 0-.3-.2-.5-.5-.5-.4 0-.6.2-.6.5 0 .4.2.6.5.6zM41.8 62.6c0-.3-.3-.6-.6-.6s-.6.3-.6.6.3.6.6.6.6-.3.6-.6zM42.6 63c-.3 0-.6.3-.6.6 0 .4.3.6.6.6s.6-.3.6-.6-.3-.5-.6-.5zM44.5 59.3c0-.3-.3-.5-.6-.5s-.6.2-.6.5c0 .4.3.6.6.6s.6-.3.6-.6zM44.8 62.1c.3 0 .6-.2.6-.6 0-.3-.3-.5-.6-.5s-.6.2-.6.5c0 .4.3.6.6.6zM43.8 62.1c0-.3-.3-.6-.6-.6s-.6.3-.6.6.3.6.6.6.5-.3.5-.6zM44.3 63.7c.3 0 .5-.3.5-.6s-.2-.6-.5-.6c-.4 0-.6.3-.6.6s.2.6.5.6zM46.8 62.5c0-.3-.3-.5-.6-.5s-.6.2-.6.5c0 .4.3.6.6.6s.6-.3.6-.6zM46 61.8c.4 0 .6-.3.6-.6s-.2-.6-.5-.6c-.4 0-.6.3-.6.6s.3.6.6.6zM46 59.3c0-.3-.2-.6-.5-.6s-.6.3-.6.6.3.5.6.5.6-.2.6-.5zM45.3 58.5c.3 0 .6-.2.6-.5 0-.4-.3-.6-.6-.6h-.1v-.2c0-.3-.3-.6-.6-.6s-.6.3-.6.6.3.6.6.6h.2v.2c0 .3.2.5.5.5zM46.7 57.9c.3 0 .6-.3.6-.6s-.2-.6-.6-.6c-.3 0-.5.3-.5.6s.2.6.5.6zM46.9 59.1c.3 0 .5-.2.5-.6 0-.3-.2-.5-.5-.5-.4 0-.6.2-.6.5 0 .4.2.6.6.6z"/>
    <path d="M47.1 59.7c0-.3-.2-.5-.5-.5-.4 0-.6.2-.6.5 0 .4.2.6.6.6.3 0 .5-.2.5-.6zM47.2 52.4c.3 0 .6-.3.6-.6s-.3-.5-.6-.5-.6.2-.6.5.3.6.6.6zM49.2 54c0-.4-.3-.6-.6-.6s-.6.2-.6.5.3.6.6.6.6-.3.6-.6zM47 55c.4 0 .6-.2.6-.5 0-.4-.2-.6-.6-.6-.3 0-.5.2-.5.6 0 .3.2.5.5.5zM48.3 57.4c.3 0 .6-.3.6-.6s-.3-.6-.6-.6-.6.3-.6.6.3.6.6.6zM48.6 58c0-.3-.3-.5-.6-.5s-.6.2-.6.5c0 .4.3.6.6.6s.6-.2.6-.6zM47.8 58.9c-.3 0-.6.2-.6.6 0 .3.3.5.6.5s.5-.2.5-.5c0-.4-.2-.6-.5-.6zM49 59.4c.3 0 .6-.2.6-.6 0-.3-.3-.5-.6-.5s-.5.2-.5.5c0 .4.2.6.5.6zM50 57.7c0-.3-.3-.5-.6-.5s-.6.2-.6.5c0 .4.3.6.6.6s.6-.2.6-.6z"/>
    <path d="M51 58.4 51 58h.2c.3 0 .5-.2.5-.5s-.2-.6-.5-.6c-.4 0-.6.3-.6.6 0 .2 0 .3.2.4h-.2c-.3 0-.6.2-.6.5 0 .2 0 .4.2.5a.6.6 0 0 0-.2 1.1c-.2 0-.3 0-.4.2 0-.4-.3-.6-.6-.6s-.6.2-.6.5a.6.6 0 0 0 1 .4c0 .4.3.6.6.6s.6-.2.6-.5-.2-.5-.5-.6a.6.6 0 0 0 .4-1c.4 0 .6-.3.6-.6zM50.3 56.6a.6.6 0 0 0-.9-.5.6.6 0 0 0-.3-1c-.3 0-.6.3-.6.6a.6.6 0 0 0 .9.5.6.6 0 0 0 .3 1c.3 0 .6-.3.6-.6z"/>
    <path d="M50.8 57c.3 0 .6-.3.6-.6s-.3-.6-.6-.6-.5.3-.5.6.2.6.5.6zM49.6 55.1c.3 0 .6-.2.6-.5s-.3-.6-.6-.6-.6.3-.6.6.3.5.6.5zM48.2 52.4c0 .3.2.6.5.6.4 0 .6-.3.6-.6s-.2-.6-.5-.6c-.4 0-.6.3-.6.6zM49.2 51.8c.3 0 .6-.3.6-.6s-.3-.6-.6-.6-.5.3-.5.6.2.6.5.6zM47.4 50.8c0 .3.2.6.5.6s.6-.3.6-.6-.3-.5-.6-.5-.5.2-.5.5zM52.8 49c0-.3-.2-.5-.5-.5-.4 0-.6.2-.6.5 0 .4.2.6.5.6.4 0 .6-.2.6-.6zM51.2 49c0-.3-.3-.6-.6-.6s-.6.3-.6.6.3.5.6.5.6-.2.6-.5z"/>
    <circle cx="50" cy="47.5" r=".6"/>
    <path d="M50.4 49.8c-.3 0-.6.2-.6.5s.3.6.6.6.6-.3.6-.6-.3-.5-.6-.5zM51 51.9c0-.3-.3-.6-.6-.6s-.6.3-.6.6.3.6.6.6.6-.3.6-.6z"/>
    <circle cx="51.2" cy="52.9" r=".6"/>
    <path d="M51.8 50c-.3 0-.6.2-.6.5 0 .4.3.6.6.6s.6-.3.6-.6-.3-.5-.6-.5zM53.2 49.4c-.3 0-.6.3-.6.6s.3.5.6.5.5-.2.5-.5-.2-.6-.5-.6zM55.2 49.2c.3 0 .6-.3.6-.6s-.3-.6-.6-.6-.6.3-.6.6.3.6.6.6zM56.5 49.7c0-.3-.2-.6-.5-.6-.4 0-.6.3-.6.6s.2.6.6.6c.3 0 .5-.3.5-.6zM57.4 48.7c0-.3-.3-.6-.6-.6s-.5.3-.5.6.2.6.5.6c.4 0 .6-.3.6-.6zM61.6 45.2c-.3 0-.6.2-.6.5 0 .4.3.6.6.6s.5-.2.5-.6c0-.3-.2-.5-.5-.5zM60.1 46c.3 0 .6-.3.6-.6s-.3-.6-.6-.6-.6.3-.6.6.3.6.6.6zM58.4 46c.3 0 .6-.3.6-.6 0-.4-.2-.6-.6-.6-.3 0-.5.2-.5.6 0 .3.2.5.5.5zM59.6 49.9c.3 0 .6-.3.6-.6s-.3-.5-.6-.5-.6.2-.6.5.3.6.6.6zM58.2 48.6c.3 0 .5-.3.5-.6s-.2-.6-.5-.6c-.4 0-.6.3-.6.6s.3.6.6.6zM56 46.5c.2 0 .5-.2.5-.5 0-.4-.3-.6-.6-.6s-.6.2-.6.6c0 .3.3.5.6.5zM58 46.9c0-.3-.3-.6-.6-.6-.4 0-.6.3-.6.6s.3.6.6.6.5-.3.5-.6z"/>
    <circle cx="56.8" cy="44.8" r=".6"/>
    <path d="M56.5 47.3c0-.3-.3-.6-.6-.6s-.5.3-.5.6.2.6.5.6c.4 0 .6-.3.6-.6zM55 47.1c0-.3-.3-.6-.7-.6-.3 0-.5.3-.5.6s.2.6.5.6c.4 0 .6-.3.6-.6zM51.7 46.1c0-.3-.2-.5-.6-.5-.3 0-.5.2-.5.5 0 .4.2.6.5.6.4 0 .6-.2.6-.6zM54.5 46c.3 0 .5-.2.5-.5s-.2-.6-.5-.6c-.4 0-.6.3-.6.6s.2.6.6.6zM53.6 49c.3 0 .6-.3.6-.6s-.3-.6-.6-.6-.6.3-.6.6.3.6.6.6zM53.5 46.5c0-.3-.2-.6-.6-.6-.3 0-.5.3-.5.6s.2.6.5.6c.4 0 .6-.3.6-.6zM51.9 48.2c.3 0 .6-.3.6-.6s-.3-.5-.6-.5-.6.2-.6.5c0 .4.3.6.6.6zM49.7 53.8c.3 0 .6-.3.6-.6s-.3-.6-.6-.6-.6.3-.6.6.3.6.6.6zM48.7 60.9c-.3 0-.6.2-.6.5 0 .4.3.6.6.6s.6-.2.6-.6c0-.3-.3-.5-.6-.5zM50.2 61.2c-.3 0-.6.2-.6.5s.3.6.6.6c.2 0 .4-.1.5-.3v.1c0 .3.2.6.6.6.3 0 .5-.3.5-.6s-.2-.6-.5-.6c-.2 0-.4.1-.5.3 0-.4-.3-.6-.6-.6z"/>
    <path d="M49.3 61.9c-.3 0-.6.2-.6.5s.3.6.6.6c.1 0 .3 0 .4-.2l-.2.4c0 .3.3.5.6.5s.6-.2.6-.5-.3-.6-.6-.6c-.2 0-.3 0-.4.2l.1-.4c0-.3-.2-.5-.5-.5zM48 63.3c.3 0 .6-.3.6-.6s-.3-.6-.6-.6-.6.3-.6.6.3.5.6.5z"/>
    <path d="M47.7 63.5c0-.3-.3-.6-.6-.6s-.6.3-.6.6.3.5.6.5.6-.2.6-.5zM49 64.4c.4 0 .6-.3.6-.6s-.2-.6-.5-.6c-.4 0-.6.3-.6.6s.3.6.6.6z"/>
    <circle cx="47.9" cy="64.7" r=".6"/>
    <circle cx="49.6" cy="66.8" r=".6"/>
    <path d="M48.3 66.6c.3 0 .5-.3.5-.6s-.2-.6-.5-.6-.6.3-.6.6.3.6.6.6zM48.3 68.2c.3 0 .6-.2.6-.5 0-.4-.3-.6-.6-.6s-.5.2-.5.6c0 .3.2.5.5.5zM46.6 65.7c-.3 0-.6.2-.6.6 0 .3.3.5.6.5s.6-.2.6-.5c0-.4-.3-.6-.6-.6zM43.7 64c-.3 0-.5.3-.5.6s.2.6.5.6.6-.3.6-.6-.3-.6-.6-.6zM36 62c0-.3-.2-.5-.5-.5s-.6.2-.6.5.3.6.6.6.6-.3.6-.6zM42.8 65.8c0 .3.2.6.5.6.4 0 .6-.3.6-.6s-.2-.6-.6-.6c-.3 0-.5.3-.5.6zM40.8 64.5c.3 0 .6-.2.6-.5 0-.4-.3-.6-.6-.6s-.6.2-.6.6c0 .3.3.5.6.5zM42 65.3c0-.3-.3-.6-.6-.6s-.6.3-.6.6.3.6.6.6.6-.3.6-.6zM45.7 66.7c0-.3-.2-.6-.6-.6-.3 0-.5.3-.5.6s.2.6.5.6c.4 0 .6-.3.6-.6z"/>
    <circle cx="45.3" cy="65.3" r=".6"/>
    <path d="M45.1 64.4c.4 0 .6-.3.6-.6s-.2-.5-.6-.5c-.3 0-.5.2-.5.5 0 .4.2.6.5.6zM46.6 65.2c.3 0 .5-.3.5-.6s-.2-.6-.5-.6c-.4 0-.6.3-.6.6s.3.6.6.6zM44.8 60.9c.3 0 .6-.3.6-.6s-.3-.6-.6-.6-.6.3-.6.6.3.6.6.6zM47.3 62.2a.6.6 0 0 0 .3-1c.4 0 .6-.3.6-.6 0-.4-.2-.6-.6-.6-.3 0-.5.3-.5.6 0 .2 0 .4.3.5h-.1c-.3 0-.6.2-.6.5 0 .4.3.6.6.6z"/>
    <circle cx="47.5" cy="47" r=".6"/>
    <path d="M48.8 45.6c-.3 0-.5.3-.5.6s.2.6.5.6c.4 0 .6-.3.6-.6s-.2-.6-.6-.6zM47 49.2c-.3 0-.5.3-.5.6s.2.6.5.6c.4 0 .6-.3.6-.6s-.2-.6-.6-.6z"/>
    <circle cx="48.3" cy="48.5" r=".6"/>
    <path d="M49.3 50.1c.3 0 .6-.2.6-.5 0-.4-.3-.6-.6-.6s-.5.2-.5.6c0 .3.2.5.5.5zM41 60.7c.3 0 .6-.3.6-.6s-.3-.6-.6-.6-.5.3-.5.6.2.6.5.6zM35.5 55.7c0 .3.3.6.6.6s.6-.3.6-.6-.3-.5-.6-.5-.6.2-.6.5zM34.9 54.6c.3 0 .5-.2.5-.5 0-.4-.2-.6-.5-.6-.4 0-.6.3-.6.6s.3.5.6.5zM36.3 60c.3 0 .6-.3.6-.6s-.3-.6-.6-.6-.5.3-.5.6.2.6.5.6zM35.2 59.3c0-.3-.2-.6-.5-.6-.4 0-.6.3-.6.6s.3.6.6.6.5-.3.5-.6zM39.3 58.9c-.3 0-.6.2-.6.5s.3.6.6.6.6-.3.6-.6-.3-.5-.6-.5zM38.4 58.7c0-.3-.3-.5-.6-.5s-.5.2-.5.5.2.6.5.6c.4 0 .6-.3.6-.6zM39.4 56.2c0-.3-.3-.6-.6-.6s-.6.3-.6.6.3.5.6.5.6-.2.6-.5zM38.4 55c0-.4-.3-.6-.6-.6s-.6.2-.6.5.3.6.6.6.6-.3.6-.6zM37.3 57.9c.3 0 .6-.3.6-.6s-.3-.5-.6-.5-.6.2-.6.5c0 .4.3.6.6.6zM35.3 58.1c.3 0 .6-.2.6-.6 0-.3-.3-.5-.6-.5s-.6.2-.6.5c0 .4.3.6.6.6zM33.7 56.3c-.3 0-.6.2-.6.5 0 .4.3.6.6.6s.5-.2.5-.6c0-.3-.2-.5-.5-.5zM32.5 58.4c.3 0 .6-.2.6-.5 0-.4-.2-.6-.6-.6-.3 0-.5.2-.5.6 0 .3.2.5.5.5zM33.1 54.5c-.3 0-.6.3-.6.6s.3.5.6.5.6-.2.6-.5c0-.4-.3-.6-.6-.6z"/>
    <circle cx="31" cy="54.8" r=".6"/>
    <path d="M30.4 56.5c-.3 0-.5.2-.5.5s.2.6.6.6c.3 0 .5-.3.5-.6s-.2-.5-.6-.5zM33.6 61.3c.4 0 .6-.3.6-.6s-.2-.6-.6-.6c-.3 0-.5.3-.5.6s.2.6.5.6zM37.2 61.3c.3 0 .6-.2.6-.6 0-.3-.2-.5-.6-.5-.3 0-.5.2-.5.5 0 .4.2.6.5.6zM40.3 61c0-.3-.3-.6-.6-.6s-.6.3-.6.6.3.5.6.5.6-.2.6-.5zM39.2 61.9c-.3 0-.6.2-.6.5 0 .4.3.6.6.6s.5-.2.5-.6c0-.3-.2-.5-.5-.5zM32.5 60c0-.4-.3-.6-.6-.6s-.5.2-.5.6c0 .3.2.5.5.5.4 0 .6-.2.6-.5zM55.5 51.7c.3 0 .6-.2.6-.6 0-.3-.2-.5-.6-.5-.3 0-.5.2-.5.5 0 .4.2.6.5.6zM56.6 52.5c0-.3-.2-.6-.5-.6s-.6.3-.6.6.3.6.6.6.5-.3.5-.6zM57.6 50.3c0-.3-.2-.6-.5-.6s-.6.3-.6.6.3.6.6.6.5-.3.5-.6zM58.3 50c.3 0 .5-.3.5-.6s-.2-.6-.5-.6c-.4 0-.6.3-.6.6s.2.6.6.6zM62 48.4c0-.3-.2-.6-.5-.6s-.6.3-.6.6.3.6.6.6.6-.3.6-.6zM60.6 48.1c0-.3-.3-.6-.6-.6s-.6.3-.6.6.3.6.6.6.6-.3.6-.6zM60.9 50c.3 0 .5-.2.5-.5s-.2-.6-.5-.6c-.4 0-.6.3-.6.6s.3.5.6.5z"/>
    <path d="M60.8 50.5c0-.3-.3-.6-.6-.6a.6.6 0 0 0-.5.8.6.6 0 0 0-.4-.2H59c0-.3-.2-.6-.5-.6-.4 0-.6.3-.6.6 0 .2 0 .4.2.5-.4 0-.7.2-.7.5 0 .4.3.6.6.6s.6-.2.6-.6c0-.2-.1-.3-.3-.4h.4c0 .3.2.6.6.6a.6.6 0 0 0 .5-.8.6.6 0 0 0 1-.4zM57.4 51.5c0-.3-.2-.5-.6-.5-.3 0-.5.2-.5.5 0 .4.2.6.5.6.4 0 .6-.3.6-.6zM55.1 49.7c0-.3-.2-.5-.6-.5-.3 0-.5.2-.5.5 0 .4.2.6.5.6.4 0 .6-.2.6-.6zM55.3 52c0-.2-.3-.5-.6-.5s-.6.2-.6.6c0 .3.3.5.6.5s.6-.2.6-.5zM54.4 53c0-.3-.2-.6-.5-.6-.4 0-.6.3-.6.6s.2.5.6.5c.3 0 .5-.2.5-.5zM52.3 51.7c0-.3-.2-.5-.5-.5-.4 0-.6.2-.6.5s.2.6.6.6c.3 0 .5-.3.5-.6zM53.2 53c0-.4-.3-.7-.6-.7s-.6.3-.6.6.3.6.6.6.6-.3.6-.6zM53.6 51.5c0-.3-.3-.5-.6-.5s-.5.2-.5.5c0 .4.2.6.5.6.4 0 .6-.3.6-.6z"/>
    <path d="M54.2 51.5c.3 0 .6-.3.6-.6s-.3-.6-.6-.6-.6.3-.6.6.3.6.6.6zM55.1 53.8c.3 0 .6-.2.6-.5 0-.4-.3-.6-.6-.6s-.5.2-.5.5c0 .4.2.6.5.6zM50.6 55.8c.3 0 .6-.3.6-.6s-.3-.6-.6-.6-.6.3-.6.6.3.6.6.6z"/>
    <path d="M50.7 53.4c-.3 0-.6.3-.6.6s.3.6.6.6.6-.3.6-.6-.3-.6-.6-.6zM52 53.4c-.3 0-.6.2-.6.6 0 .3.3.5.6.5s.6-.2.6-.5c0-.4-.3-.6-.6-.6zM53.2 53.7c-.3 0-.6.3-.6.6s.3.6.6.6.6-.3.6-.6-.3-.6-.6-.6z"/>
    <circle cx="53.2" cy="55.5" r=".6"/>
    <path d="M53.7 56.7c0-.3-.3-.5-.6-.5s-.6.2-.6.5.3.6.6.6.6-.3.6-.6z"/>
    <path d="M52 56.7c.4 0 .6-.2.6-.5s-.1-.5-.4-.6a.6.6 0 0 0-.3-1c-.3 0-.6.3-.6.6s.2.5.4.5a.6.6 0 0 0 .4 1zM52.8 57.5c0-.3-.3-.6-.6-.6s-.6.3-.6.6.3.5.6.5.6-.2.6-.5zM52 58c-.4 0-.6.3-.6.6s.2.6.5.6.6-.3.6-.6-.3-.6-.6-.6zM66 51c.2 0 .5-.2.5-.5 0-.4-.3-.6-.6-.6s-.5.2-.5.6c0 .3.2.5.5.5z"/>
    <path d="M65.1 50.2c.3 0 .6-.3.6-.6s-.3-.6-.6-.6-.6.3-.6.6.3.6.6.6zM63.6 50.6c.3 0 .6-.3.6-.6s-.3-.6-.6-.6-.5.3-.5.6.2.6.5.6zM61.5 50.2a.6.6 0 0 0-.3 1.1l-.2.3c0-.3-.2-.5-.5-.5s-.6.3-.6.6.3.5.6.5c.2 0 .5-.2.5-.4 0 .3.3.5.6.5s.6-.2.6-.5-.2-.5-.4-.6c.2 0 .2-.2.2-.4 0-.3-.2-.6-.5-.6zM62.8 49.4c0-.3-.2-.5-.5-.5-.4 0-.6.2-.6.5s.2.6.5.6c.4 0 .6-.3.6-.6zM64.6 48.8c0-.3-.3-.6-.6-.6s-.5.3-.5.6.2.6.5.6c.4 0 .6-.3.6-.6z"/>
    <circle cx="65.3" cy="48.3" r=".6"/>
    <path d="M63.4 48.1c0-.3-.3-.6-.6-.6s-.5.3-.5.6.2.6.5.6.6-.3.6-.6zM69 48.2c-.4 0-.7.3-.7.6s.3.6.6.6.6-.3.6-.6-.3-.6-.6-.6z"/>
    <circle cx="67.6" cy="48.5" r=".6"/>
    <path d="M69 46.8c-.3 0-.6.3-.6.6s.3.6.6.6.6-.3.6-.6-.3-.6-.6-.6zM66.8 47.6c0-.3-.2-.6-.5-.6s-.6.3-.6.6.3.5.6.5.5-.2.5-.5zM67.7 46.7c-.3 0-.6.2-.6.5 0 .4.3.6.6.6s.6-.2.6-.5c0-.4-.3-.6-.6-.6zM70.1 47.5c.3 0 .6-.3.6-.6s-.3-.6-.6-.6-.5.3-.5.6.2.6.5.6z"/>
    <circle cx="68.9" cy="45.9" r=".6"/>
    <path d="M67.4 45c0 .4.2.6.6.6.3 0 .5-.2.5-.5 0-.4-.2-.6-.5-.6-.4 0-.6.3-.6.6zM68.4 43.4c-.3 0-.6.2-.6.5 0 .4.3.6.6.6s.5-.3.5-.6-.2-.5-.5-.5zM67.7 46c0-.2-.3-.5-.6-.5s-.6.2-.6.6c0 .3.3.5.6.5s.6-.2.6-.5zM62.8 45.5c.3 0 .6-.2.6-.5 0-.4-.3-.6-.6-.6s-.6.2-.6.6c0 .3.3.5.6.5zM63.9 44.5c0 .3.2.6.6.6.3 0 .5-.3.5-.6s-.2-.5-.5-.5c-.4 0-.6.2-.6.5z"/>
    <circle cx="64.1" cy="47.4" r=".6"/>
    <path d="M62.9 47.2c.3 0 .6-.3.6-.6s-.3-.6-.6-.6-.6.3-.6.6.3.6.6.6zM59.7 46.9c0-.3-.2-.6-.6-.6-.3 0-.5.2-.5.6 0 .3.2.5.5.5.4 0 .6-.2.6-.5zM61 47.6c.4 0 .7-.2.7-.5s-.3-.6-.6-.6-.6.3-.6.6.3.5.6.5zM58.5 43.3c-.3 0-.6.2-.6.5 0 .4.3.6.6.6s.6-.2.6-.6c0-.3-.3-.5-.6-.5zM59.6 44c0 .4.2.7.5.7.4 0 .6-.3.6-.6s-.2-.6-.6-.6c-.3 0-.5.3-.5.6zM55.7 44c0-.2-.3-.5-.6-.5s-.6.3-.6.6.3.5.6.5.6-.2.6-.5z"/>
    <circle cx="57" cy="43.3" r=".6"/>
    <path d="M56.5 39.4c-.3 0-.6.2-.6.5s.3.6.6.6.6-.3.6-.6-.3-.5-.6-.5zM58.5 41.6c-.3 0-.5.3-.5.6s.2.5.5.5c.4 0 .6-.2.6-.5s-.2-.6-.6-.6zM52.5 41.3c0 .3.3.6.6.6s.6-.3.6-.6-.3-.6-.6-.6-.6.3-.6.6zM54 43.1c0-.3-.3-.6-.6-.6s-.6.3-.6.6.3.6.6.6.6-.3.6-.6zM51.3 41.9c-.3 0-.6.2-.6.5 0 .4.3.6.6.6s.6-.2.6-.6c0-.3-.3-.5-.6-.5zM51.6 40.8c0-.3-.3-.6-.6-.6s-.5.3-.5.6.2.6.5.6.6-.3.6-.6zM48.4 37.2c0 .3.3.6.6.6s.6-.3.6-.6-.3-.6-.6-.6-.6.3-.6.6zM51.9 39.4c0 .3.2.6.5.6.4 0 .6-.3.6-.6s-.3-.5-.6-.5-.5.2-.5.5zM56.2 38.5c0-.3-.3-.5-.6-.5s-.6.2-.6.5c0 .4.3.6.6.6s.6-.2.6-.6zM56.7 36.6c-.3 0-.5.3-.5.6s.2.5.5.5c.4 0 .6-.2.6-.5s-.2-.6-.6-.6zM57.7 37.6c0 .4.3.6.6.6s.5-.2.5-.6c0-.3-.2-.5-.5-.5s-.6.2-.6.5zM60.4 39.5c-.3 0-.6.3-.6.6s.3.6.6.6.6-.3.6-.6-.3-.6-.6-.6zM63.9 41c0-.4-.3-.6-.6-.6s-.5.2-.5.6c0 .3.2.5.5.5.4 0 .6-.2.6-.5zM68.1 41.5c0-.3-.2-.5-.5-.5-.4 0-.6.2-.6.5 0 .4.2.6.6.6.3 0 .5-.2.5-.6zM66.8 41.5c0-.3-.2-.6-.6-.6-.3 0-.5.3-.5.6s.2.6.6.6c.3 0 .5-.3.5-.6zM70 44.6c0-.3-.3-.6-.6-.6-.4 0-.6.3-.6.6s.3.6.6.6.5-.3.5-.6zM64.1 38.6c0-.3-.2-.6-.5-.6-.4 0-.6.3-.6.6s.2.5.6.5c.3 0 .5-.2.5-.5zM63.5 36.6c-.3 0-.6.3-.6.6s.3.6.6.6.6-.3.6-.6-.3-.6-.6-.6zM64 40.3c.4 0 .7-.2.7-.5 0-.4-.3-.6-.6-.6s-.6.2-.6.5c0 .4.3.6.6.6zM65 38.2c-.2 0-.5.3-.5.6s.3.6.6.6.6-.3.6-.6-.3-.6-.6-.6zM62.7 38c0-.4-.3-.7-.6-.7s-.6.3-.6.6.3.6.6.6.6-.3.6-.6zM61.2 37.4c0-.3-.2-.6-.5-.6-.4 0-.6.3-.6.6s.3.5.6.5.5-.2.5-.5z"/>
    <circle cx="62" cy="36.5" r=".6"/>
    <path d="M59.9 36.6c0-.3-.3-.6-.6-.6s-.6.3-.6.6.3.5.6.5.6-.2.6-.5zM58.3 35c0 .4.2.7.6.7.3 0 .5-.3.5-.6s-.2-.6-.5-.6c-.4 0-.6.3-.6.6zM60 36c0 .2.3.5.6.5.4 0 .6-.3.6-.6s-.2-.5-.6-.5c-.3 0-.5.2-.5.5zM57 34.2c-.4 0-.7.3-.7.6s.3.5.6.5.6-.2.6-.5-.3-.6-.6-.6zM60.3 34.2c-.3 0-.6.3-.6.6s.3.5.6.5.5-.2.5-.5-.2-.6-.5-.6zM63.2 35.3c-.3 0-.6.2-.6.6 0 .3.3.5.6.5s.6-.2.6-.5c0-.4-.3-.6-.6-.6zM54.7 40.7c0 .3.2.5.5.5s.6-.2.6-.5-.3-.6-.6-.6-.5.3-.5.6zM54 39.4c-.2 0-.5.3-.5.6s.2.6.6.6c.3 0 .5-.3.5-.6s-.2-.6-.5-.6zM61 41.4c0-.3-.3-.6-.6-.6s-.6.3-.6.6.3.6.6.6.6-.3.6-.6zM58 41c0-.4-.2-.6-.5-.6s-.6.2-.6.6c0 .3.3.5.6.5s.5-.2.5-.5zM59.4 40.7c0-.3-.2-.6-.6-.6-.3 0-.5.3-.5.6s.2.6.5.6c.4 0 .6-.3.6-.6zM57 42c0-.4-.2-.6-.6-.6-.3 0-.5.2-.5.6 0 .3.2.5.5.5.4 0 .6-.2.6-.5zM54.2 42.4c0 .3.2.6.5.6s.6-.3.6-.6-.3-.6-.6-.6-.5.3-.5.6zM49 42.4c0 .3.2.6.5.6s.6-.3.6-.6-.3-.6-.6-.6-.6.3-.6.6z"/>
    <circle cx="48.6" cy="44.5" r=".6"/>
    <path d="M47.5 43.4c.3 0 .6-.3.6-.6s-.2-.6-.6-.6c-.3 0-.5.3-.5.6s.2.6.5.6zM44.5 44c-.3 0-.6.3-.6.7 0 .3.3.5.6.5s.6-.2.6-.5c0-.4-.3-.6-.6-.6zM46.8 45.4c.3 0 .6-.3.6-.6s-.3-.5-.6-.5-.6.2-.6.5.3.6.6.6zM44.5 42.3c0 .3.2.6.5.6.4 0 .6-.3.6-.6s-.2-.5-.6-.5c-.3 0-.5.2-.5.5zM49.8 45.1c0 .3.2.6.5.6s.6-.3.6-.6-.3-.6-.6-.6-.5.3-.5.6z"/>
    <circle cx="51.5" cy="43.8" r=".6"/>
    <path d="M52.9 45.5c.3 0 .5-.3.5-.6s-.2-.6-.5-.6c-.4 0-.6.3-.6.6s.2.6.6.6zM59.9 43.3c.3 0 .5-.2.5-.6 0-.3-.2-.5-.5-.5-.4 0-.6.2-.6.5 0 .4.2.6.6.6zM66 46.5c0-.3-.2-.5-.5-.5s-.6.2-.6.5c0 .4.3.6.6.6s.6-.3.6-.6zM65.5 41.8c-.3 0-.6.3-.6.6s.3.6.6.6.6-.3.6-.6-.3-.6-.6-.6zM64.3 42.3c-.3 0-.6.2-.6.6 0 .3.3.5.6.5s.6-.2.6-.5c0-.4-.3-.6-.6-.6zM63.8 43.7c0-.3-.3-.6-.6-.6s-.6.3-.6.6.3.6.6.6.5-.3.5-.6zM61 43.9c0 .3.3.5.6.5s.5-.2.5-.5c0-.4-.2-.6-.5-.6-.4 0-.6.2-.6.6z"/>
    <circle cx="61.8" cy="40.8" r=".6"/>
    <path d="M61.5 41.9c-.3 0-.6.2-.6.5 0 .4.3.6.6.6s.5-.3.5-.6-.2-.5-.5-.5zM67.2 43.4c-.3 0-.6.3-.6.6s.3.6.6.6.5-.3.5-.6-.2-.6-.5-.6zM65.6 43.2c-.3 0-.5.3-.5.6s.2.6.5.6c.4 0 .6-.3.6-.6s-.3-.6-.6-.6z"/>
    <circle cx="65.8" cy="45" r=".6"/>
    <path d="M76.8 43.8c.3 0 .6-.3.6-.6s-.3-.6-.6-.6-.6.3-.6.6.3.6.6.6zM75 38.5c.4 0 .6-.2.6-.5 0-.4-.2-.6-.5-.6-.4 0-.6.2-.6.6 0 .3.3.5.6.5zM65.8 40.4c0-.3-.2-.5-.5-.5s-.6.2-.6.5c0 .4.3.6.6.6s.6-.2.6-.6zM65.1 41.5c0-.3-.3-.6-.6-.6s-.5.3-.5.6.2.5.5.5c.4 0 .6-.2.6-.5zM66.7 39.6c0-.3-.3-.6-.6-.6s-.5.3-.5.6.2.5.5.5.6-.2.6-.5zM74.5 37.4c.3 0 .5-.2.6-.4h.2c.3 0 .6-.2.6-.5s-.3-.6-.6-.6c-.2 0-.5.2-.5.4h-.3l-.4.1v-.1c0-.2 0-.4-.2-.5l.1-.4c0-.2-.1-.4-.3-.5.4 0 .6-.3.6-.6s-.2-.6-.5-.6c-.4 0-.6.3-.6.6 0-.3-.3-.5-.6-.5s-.5.3-.5.6.2.6.5.6c.4 0 .6-.3.6-.6 0 .2.2.4.3.4-.4 0-.6.3-.6.6a.6.6 0 0 0-1.1.1c0 .3.2.5.4.6-.2 0-.3.3-.3.5 0 .3.2.5.4.5-.2.1-.3.3-.3.6s.2.5.6.5c.3 0 .5-.2.5-.5s-.2-.5-.4-.6c.2 0 .4-.3.4-.5v-.1c0 .2.2.4.5.4l.4-.2v.1c0 .3.2.6.5.6zM73 36.3l-.4-.3c.2 0 .3-.2.3-.5 0 .2.1.3.3.4l-.2.4zM70 37c0-.3-.3-.6-.6-.6-.4 0-.6.2-.6.6 0 .3.2.5.6.5.3 0 .5-.2.5-.5zM68 34.7c.3 0 .6-.3.6-.6s-.3-.6-.6-.6-.6.3-.6.6.3.6.6.6z"/>
    <circle cx="66.8" cy="34.2" r=".6"/>
    <path d="M69 34c-.2 0-.5.2-.5.5s.3.6.6.6.6-.3.6-.6-.3-.5-.6-.5zM70.7 35.4c0-.3-.3-.6-.6-.6s-.6.3-.6.6.3.6.6.6.6-.3.6-.6z"/>
    <path d="M69.6 35.7c0-.4-.3-.6-.6-.6s-.6.2-.6.6c0 .1 0 .2.2.3h-.3c-.3 0-.6.2-.6.5a.6.6 0 0 0-.4-.2c-.3 0-.6.2-.6.5s.2.6.6.6c.3 0 .5-.3.5-.6a.6.6 0 1 0 .9-.7l.3.1c.3 0 .6-.2.6-.5zM64 36.1c0 .3.3.6.6.6s.6-.2.6-.6c0-.3-.3-.5-.6-.5s-.6.2-.6.5zM65.4 35.5c.3 0 .6-.3.6-.6s-.3-.6-.6-.6-.6.3-.6.6.3.6.6.6zM66 36.7c.3 0 .5-.2.5-.5 0-.4-.2-.6-.5-.6-.4 0-.6.3-.6.6s.2.5.6.5z"/>
    <path d="M67.2 35.8c.1.1.3.3.5.3.3 0 .6-.3.6-.6a.6.6 0 0 0-1-.4.6.6 0 0 0-1 .3.6.6 0 0 0 .9.4zM65.4 37.6c0-.3-.2-.6-.5-.6-.4 0-.6.2-.6.6 0 .3.3.5.6.5s.5-.2.5-.5zM63.5 35c0 .3.3.5.6.5s.6-.2.6-.5c0-.4-.3-.6-.6-.6s-.6.2-.6.6zM64.5 34.3c.3 0 .6-.3.6-.6s-.3-.6-.6-.6-.6.3-.6.6.3.6.6.6zM62.5 35c0-.2-.3-.5-.6-.5s-.5.3-.5.6.2.5.5.5c.4 0 .6-.2.6-.5zM63 33.6c-.2 0-.5.3-.5.6s.3.6.6.6.5-.3.5-.6-.2-.6-.5-.6zM66.7 37.5c0-.3-.3-.6-.6-.6s-.6.3-.6.6.3.5.6.5.6-.2.6-.5z"/>
    <path d="M69.1 37.9c0-.3-.2-.6-.6-.6-.3 0-.5.2-.5.6 0-.3-.3-.5-.6-.5s-.5.3-.5.5h-.2c-.4 0-.6.3-.6.6s.2.5.6.5c.2 0 .5-.2.5-.5h.2c.3 0 .6-.2.6-.5 0 .2.3.4.5.4-.2 0-.5.3-.5.6s.3.6.6.6.6-.3.6-.6-.3-.6-.6-.6c.3 0 .5-.2.5-.5zM70.2 33.6c-.3 0-.6.3-.6.6s.3.5.6.5.6-.2.6-.5c0-.4-.3-.6-.6-.6z"/>
    <path d="M71.1 33c0-.2-.2-.5-.5-.5s-.6.3-.6.6.3.6.6.6.5-.3.5-.6zM69.8 33.2c0-.3-.2-.6-.5-.6-.4 0-.6.3-.6.6s.2.6.6.6c.3 0 .5-.3.5-.6zM70.6 31.1c-.3 0-.5.3-.5.6s.2.6.5.6c.4 0 .6-.3.6-.6s-.3-.6-.6-.6zM72.2 31.7c.3 0 .6-.2.6-.6 0-.3-.3-.5-.6-.5s-.6.2-.6.5c0 .4.3.6.6.6zM72.5 33.8c.3 0 .6-.3.6-.6s-.3-.6-.6-.6h-.2c0-.3-.3-.6-.6-.6s-.5.3-.5.6.2.6.5.6h.3c0 .3.2.6.5.6zM74.6 36c.4 0 .6-.3.6-.6 0-.4-.2-.6-.6-.6-.3 0-.5.3-.5.6s.2.5.5.5zM76.5 36.4c.4 0 .6-.3.6-.6s-.2-.5-.6-.5c-.3 0-.5.2-.5.5 0 .4.2.6.6.6zM76.3 38.5c.3 0 .5-.2.5-.6 0-.3-.2-.5-.5-.5-.4 0-.6.2-.6.5 0 .4.2.6.6.6zM76.4 40.5c.3 0 .6-.3.6-.6s-.3-.6-.6-.6-.6.3-.6.6.3.6.6.6z"/>
    <path d="M67.6 32.7c0 .3.3.6.6.6s.6-.3.6-.6-.3-.5-.6-.5-.6.2-.6.5zM68.1 31.6c0-.3-.3-.5-.6-.5s-.5.2-.5.5c0 .4.2.6.5.6.4 0 .6-.2.6-.6zM66.3 32.8c0 .3.3.5.6.5s.6-.2.6-.5-.3-.6-.6-.6-.6.3-.6.6z"/>
    <path d="M65.8 32.8c.4 0 .6-.3.6-.6s-.2-.6-.6-.6c-.3 0-.5.3-.5.6s.2.6.6.6zM66.3 30.2c-.3 0-.5.3-.5.6s.2.6.5.6c.4 0 .6-.3.6-.6s-.3-.6-.6-.6zM69.8 32c0-.4-.2-.6-.6-.6-.3 0-.5.2-.5.5 0 .4.2.6.6.6.3 0 .5-.2.5-.6zM64.5 33c.3 0 .6-.2.6-.6 0-.3-.3-.5-.6-.5s-.6.2-.6.5c0 .4.3.6.6.6zM62.7 32.4c-.3 0-.6.3-.6.6s.3.5.6.5.5-.2.5-.5c0-.4-.2-.6-.5-.6zM63.3 31.2c-.3 0-.5.3-.5.6s.2.6.5.6c.4 0 .6-.3.6-.6s-.3-.6-.6-.6zM57.6 33.7c0 .3.2.6.6.6.3 0 .5-.2.5-.6 0-.3-.2-.5-.5-.5-.4 0-.6.2-.6.5zM59.9 32.8c-.3 0-.6.3-.6.6s.2.6.6.6c.3 0 .5-.3.5-.6s-.2-.6-.5-.6zM56.9 32.7c-.3 0-.6.3-.6.6s.2.6.6.6c.3 0 .5-.3.5-.6s-.2-.6-.5-.6zM57.2 36c0 .4.2.6.5.6s.6-.2.6-.6c0-.3-.3-.5-.6-.5s-.5.2-.5.5zM55.5 33c-.3 0-.6.3-.6.6 0 .4.3.6.6.6s.6-.2.6-.6c0-.3-.3-.5-.6-.5zM55.6 35.1c-.3 0-.5.3-.5.6s.2.6.5.6c.4 0 .6-.3.6-.6s-.2-.6-.6-.6zM55.4 31.5c-.3 0-.5.3-.5.6s.2.5.5.5c.4 0 .6-.2.6-.5 0-.4-.3-.6-.6-.6z"/>
    <circle cx="51" cy="36.1" r=".6"/>
    <path d="M60.9 30.1c0 .3.3.6.6.6s.5-.3.5-.6-.2-.6-.5-.6c-.4 0-.6.3-.6.6zM64 31c0 .4.3.6.6.6s.6-.2.6-.5-.3-.6-.6-.6-.6.3-.6.6zM62 30.8c-.2 0-.5.3-.5.6s.3.6.6.6.6-.3.6-.6-.3-.6-.6-.6zM54.3 37c0 .2.3.5.6.5s.6-.3.6-.6-.3-.5-.6-.5-.6.2-.6.5zM51 38.4c.3 0 .6-.3.6-.6s-.3-.6-.6-.6-.5.3-.5.6.2.6.5.6zM52 37.5c0 .3.3.5.6.5.4 0 .6-.2.6-.5 0-.4-.2-.6-.6-.6-.3 0-.5.2-.5.6zM47.8 35.3c-.3 0-.5.2-.5.5 0 .4.2.6.5.6s.6-.2.6-.6c0-.3-.3-.5-.6-.5zM48.8 33.3c0 .3.2.5.6.5.3 0 .5-.2.5-.5 0-.4-.2-.6-.5-.6-.4 0-.6.2-.6.5zM60 30.8c-.4 0-.7.2-.7.6 0 .3.3.5.6.5s.6-.2.6-.5c0-.4-.3-.6-.6-.6zM60.9 33.7c0 .3.3.5.6.5s.5-.2.5-.5c0-.4-.2-.6-.5-.6-.4 0-.6.3-.6.6zM65.3 29.3c-.3 0-.6.3-.6.6s.3.6.6.6.6-.3.6-.6-.3-.6-.6-.6zM71 29.8c0 .3.2.6.6.6.3 0 .5-.3.5-.6s-.2-.6-.5-.6c-.4 0-.6.3-.6.6zM67.6 29.7c-.3 0-.5.2-.5.5 0 .4.2.6.5.6.4 0 .6-.2.6-.6 0-.3-.3-.5-.6-.5zM57.2 32.4c.3 0 .6-.3.6-.6s-.3-.6-.6-.6-.6.3-.6.6.3.6.6.6zM58.7 31.6c-.3 0-.6.3-.6.6s.3.6.6.6.6-.3.6-.6-.3-.6-.6-.6zM58 31c.3 0 .5-.2.5-.6 0-.3-.2-.5-.5-.5-.4 0-.6.2-.6.6 0 .3.2.5.6.5zM59.4 30c0 .3.2.5.5.5.4 0 .6-.2.6-.6 0-.3-.2-.5-.6-.5-.3 0-.5.2-.5.5zM73.2 31.8c0 .3.2.6.5.6s.6-.3.6-.6-.3-.6-.6-.6-.6.3-.6.6zM73.4 33.1c0 .3.3.6.6.6s.6-.3.6-.6-.3-.6-.6-.6-.6.3-.6.6zM69.6 30.3c0 .3.2.6.6.6.3 0 .5-.2.5-.6 0-.3-.2-.5-.5-.5-.4 0-.6.2-.6.5zM68.8 31.4c.3 0 .6-.3.6-.6s-.3-.6-.6-.6-.6.3-.6.6.3.6.6.6zM69 30c.2 0 .5-.3.5-.6 0-.4-.3-.6-.6-.6s-.5.2-.5.6c0 .3.2.5.5.5zM66.5 28.8c-.3 0-.6.3-.6.6s.3.6.6.6.6-.3.6-.6-.3-.6-.6-.6zM71 28.6c0-.3-.2-.6-.5-.6s-.6.3-.6.6.3.5.6.5.6-.2.6-.5zM72.4 28.8c.3 0 .6-.2.6-.6 0-.3-.3-.5-.6-.5s-.6.2-.6.5c0 .4.3.6.6.6zM67.2 28.6c0 .3.2.6.5.6s.6-.2.6-.6c0-.3-.3-.5-.6-.5s-.6.2-.6.5zM66.8 27c0 .3.3.6.6.6s.6-.3.6-.6-.3-.6-.6-.6-.6.3-.6.6zM66.2 27.5c-.3 0-.5.2-.5.5 0 .4.2.6.5.6.4 0 .6-.2.6-.6 0-.3-.2-.5-.6-.5zM69.2 25.4c-.3 0-.6.3-.6.6s.3.5.6.5.6-.2.6-.5c0-.4-.3-.6-.6-.6zM64.3 28c0 .3.3.6.6.6s.5-.2.5-.6c0-.3-.2-.5-.5-.5-.4 0-.6.2-.6.5zM63.6 29.2c0 .3.2.6.5.6.4 0 .6-.3.6-.6s-.2-.6-.6-.6c-.3 0-.5.3-.5.6zM63.2 29.7c-.3 0-.6.3-.6.6s.3.6.6.6.5-.3.5-.6-.2-.6-.5-.6zM65.3 26c-.3 0-.6.3-.6.6s.3.6.6.6.6-.3.6-.6-.3-.6-.6-.6zM62.3 28.2c-.3 0-.6.2-.6.6 0 .3.3.5.6.5s.6-.2.6-.6c0-.3-.3-.5-.6-.5zM60.6 28.1c-.3 0-.5.3-.5.6s.2.6.5.6c.4 0 .6-.3.6-.6s-.2-.6-.6-.6zM63.4 27.3c-.3 0-.5.3-.5.6s.2.6.5.6c.4 0 .6-.3.6-.6s-.3-.6-.6-.6zM63.6 27c.3 0 .6-.2.6-.5s-.3-.6-.6-.6-.5.3-.5.6.2.6.5.6zM61.2 27.3c0 .3.2.6.5.6.4 0 .6-.3.6-.6s-.2-.6-.6-.6c-.3 0-.5.3-.5.6z"/>
    <circle cx="58.5" cy="27.6" r=".6"/>
    <path d="M58.8 28.5c-.3 0-.5.3-.5.6s.2.5.5.5c.4 0 .6-.2.6-.5 0-.4-.3-.6-.6-.6zM55.9 29.5c-.4 0-.6.2-.6.5 0 .4.2.6.6.6.3 0 .5-.2.5-.6 0-.3-.2-.5-.5-.5zM59 25.1c-.3 0-.5.3-.5.6s.2.6.5.6.6-.3.6-.6-.3-.6-.6-.6zM66.7 25.4c0 .3.2.6.5.6.4 0 .6-.3.6-.6s-.2-.6-.6-.6c-.3 0-.5.3-.5.6zM66.2 25c.3 0 .5-.3.5-.6s-.2-.6-.6-.6c-.3 0-.5.3-.5.6s.2.6.6.6zM70.2 25.1c0 .3.3.6.6.6s.5-.2.5-.6c0-.3-.2-.5-.5-.5s-.6.2-.6.5zM70.9 26.2c-.3 0-.6.3-.6.6s.3.6.6.6.5-.3.5-.6-.2-.6-.5-.6zM68.5 27.9c0 .3.2.6.5.6s.6-.3.6-.6-.3-.6-.6-.6-.6.3-.6.6zM72.9 30.2c0 .3.2.5.6.5.3 0 .5-.2.5-.5s-.2-.6-.5-.6c-.4 0-.6.3-.6.6zM64.2 25.6c.3 0 .5-.3.5-.6s-.2-.5-.6-.5c-.3 0-.5.2-.5.5 0 .4.2.6.6.6zM62.6 25c-.3 0-.6.3-.6.6 0 .4.3.6.6.6s.5-.2.5-.6c0-.3-.2-.5-.5-.5zM60.9 25.6c.3 0 .6-.3.6-.6s-.3-.6-.6-.6-.6.3-.6.6.3.6.6.6zM60.2 26.2c-.3 0-.6.3-.6.6s.3.6.6.6.6-.3.6-.6-.3-.6-.6-.6zM51.7 34.3c0 .3.2.6.5.6.4 0 .6-.3.6-.6s-.2-.6-.5-.6c-.4 0-.6.3-.6.6zM53.6 32.8c-.3 0-.5.2-.5.6 0 .3.2.5.5.5.4 0 .6-.2.6-.5 0-.4-.2-.6-.6-.6zM51.2 32.3c-.3 0-.5.3-.5.6s.2.6.5.6.6-.3.6-.6-.3-.6-.6-.6z"/>
    <circle cx="54.2" cy="30.6" r=".6"/>
    <path d="M55 29.4c.2 0 .5-.3.5-.6s-.3-.6-.6-.6-.5.3-.5.6.2.6.5.6z"/>
    <circle cx="56.1" cy="27.5" r=".6"/>
    <path d="M51.5 30.5c0 .3.2.5.5.5.4 0 .6-.2.6-.5 0-.4-.3-.6-.6-.6s-.5.2-.5.6zM50 31.4c0 .3.2.5.5.5s.6-.2.6-.5c0-.4-.3-.6-.6-.6s-.6.2-.6.6zM53 31.4c-.2 0-.5.2-.5.6 0 .3.3.5.6.5s.6-.2.6-.6c0-.3-.3-.5-.6-.5zM49.1 35c0 .4.3.6.6.6s.6-.2.6-.5-.3-.6-.6-.6-.6.3-.6.6zM57.9 29c0-.4-.3-.6-.6-.6s-.6.2-.6.6c0 .3.3.5.6.5s.6-.2.6-.6zM55 27c.4 0 .6-.3.6-.6 0-.4-.2-.6-.6-.6-.3 0-.5.2-.5.6 0 .3.2.5.5.5zM56.7 26c0 .4.3.6.6.6s.6-.2.6-.5c0-.4-.3-.6-.6-.6s-.6.3-.6.6zM52.4 29.1c0 .3.2.6.5.6.4 0 .6-.3.6-.6s-.2-.6-.6-.6c-.3 0-.5.3-.5.6z"/>
    <circle cx="61.7" cy="21.5" r=".6"/>
    <path d="M62.4 22.4c-.3 0-.6.3-.6.6s.3.6.6.6.6-.3.6-.6-.3-.6-.6-.6zM59.8 22.9c-.3 0-.5.2-.5.6 0 .3.2.5.5.5.4 0 .6-.2.6-.5 0-.4-.2-.6-.6-.6zM57.5 23.4c-.3 0-.5.3-.5.6s.2.6.5.6c.4 0 .6-.3.6-.6s-.2-.6-.6-.6zM54.7 21c-.4 0-.6.2-.6.5s.2.6.6.6c.3 0 .5-.3.5-.6s-.2-.6-.5-.6zM64.3 22c.3 0 .6-.2.6-.5s-.3-.6-.6-.6-.6.3-.6.6.3.6.6.6zM64.2 23.8c.3 0 .6-.3.6-.6s-.3-.5-.6-.5-.5.2-.5.5c0 .4.2.6.5.6zM53 27.2c0 .3.3.5.6.5s.5-.2.5-.5c0-.4-.2-.6-.5-.6s-.6.2-.6.6zM51.9 27.6c0-.3-.3-.6-.6-.6s-.6.3-.6.6.3.6.6.6.6-.3.6-.6zM57 22.7c.4 0 .6-.2.6-.5 0-.4-.2-.6-.5-.6s-.6.2-.6.6c0 .3.3.5.6.5zM58.5 20c.3 0 .6-.2.6-.5s-.3-.6-.6-.6-.6.3-.6.6.3.6.6.6zM59.1 21.4c0 .3.3.5.6.5s.6-.2.6-.5-.3-.6-.6-.6-.6.3-.6.6zM53.5 23.8c0 .3.3.5.6.5s.6-.2.6-.5c0-.4-.3-.6-.6-.6s-.6.2-.6.6zM55.7 24c-.3 0-.5.2-.5.5s.2.6.5.6c.4 0 .6-.3.6-.6s-.2-.6-.6-.6zM49.6 23.8c.3 0 .6-.2.6-.5 0-.4-.3-.6-.6-.6s-.6.3-.6.6.3.5.6.5zM48.3 25.5c0 .3.2.6.5.6.4 0 .6-.3.6-.6s-.2-.5-.6-.5c-.3 0-.5.2-.5.5zM50.3 26c0 .3.2.5.6.5.3 0 .5-.2.5-.5 0-.4-.2-.6-.5-.6-.4 0-.6.2-.6.6zM49.7 29.4c0 .3.3.6.6.6s.6-.3.6-.6-.3-.6-.6-.6-.6.3-.6.6z"/>
    <circle cx="48.5" cy="31" r=".6"/>
    <path d="M47.5 32c-.3 0-.6.2-.6.6 0 .3.3.5.6.5s.6-.2.6-.5c0-.4-.3-.6-.6-.6zM45.4 34.8c-.3 0-.6.3-.6.6s.2.6.6.6c.3 0 .5-.3.5-.6s-.2-.6-.5-.6zM47 37.3c-.3 0-.5.2-.5.6 0 .3.2.5.5.5s.6-.2.6-.5c0-.4-.3-.6-.6-.6zM49.5 39.4c0 .3.3.5.6.5s.6-.2.6-.5c0-.4-.3-.6-.6-.6s-.6.2-.6.6z"/>
    <circle cx="48.4" cy="39.2" r=".6"/>
    <circle cx="47" cy="40.5" r=".6"/>
    <path d="M48.6 40.4c-.3 0-.6.3-.6.6s.3.6.6.6.6-.3.6-.6-.3-.6-.6-.6zM45.4 38.4c-.3 0-.6.2-.6.5 0 .4.3.6.6.6s.6-.3.6-.6-.3-.5-.6-.5zM42 44.3c0-.3-.2-.6-.5-.6-.4 0-.6.3-.6.6s.2.6.6.6c.3 0 .5-.3.5-.6zM43.8 41.3c.3 0 .6-.2.6-.5 0-.4-.3-.6-.6-.6s-.6.2-.6.5c0 .4.3.6.6.6zM40.4 41.5c0 .3.3.6.6.6s.5-.3.5-.6-.2-.5-.5-.5c-.4 0-.6.2-.6.5zM41 38.5c0 .3.2.6.6.6.3 0 .5-.3.5-.6s-.2-.6-.5-.6c-.4 0-.6.3-.6.6zM40.4 36.3c0-.3-.2-.5-.5-.5-.4 0-.6.2-.6.5s.2.6.6.6c.3 0 .5-.3.5-.6zM47.3 28.8c-.3 0-.6.2-.6.6 0 .3.3.5.6.5s.6-.2.6-.5c0-.4-.3-.6-.6-.6zM45 27.7c-.4 0-.6.2-.6.5 0 .4.2.6.6.6.3 0 .5-.2.5-.6 0-.3-.2-.5-.5-.5zM48.8 27.3c-.3 0-.6.3-.6.6s.3.6.6.6.6-.3.6-.6-.3-.6-.6-.6zM36.4 30.5c0 .3.2.6.6.6.3 0 .5-.3.5-.6s-.2-.6-.5-.6c-.4 0-.6.3-.6.6zM40 40.7c.3 0 .6-.3.6-.6s-.2-.6-.6-.6c-.3 0-.5.3-.5.6s.2.6.5.6zM36.8 41.4c0 .3.2.6.5.6s.6-.3.6-.6-.3-.6-.6-.6-.5.3-.5.6zM46.8 25.8c-.3 0-.6.2-.6.6 0 .3.3.5.6.5s.6-.2.6-.5c0-.4-.3-.6-.6-.6z"/>
    <circle cx="40.2" cy="30.6" r=".6"/>
    <path d="M42 28.7c.3 0 .5-.3.5-.6s-.2-.6-.5-.6c-.4 0-.6.3-.6.6s.3.6.6.6zM34.1 44c0-.4-.2-.6-.6-.6-.3 0-.5.2-.5.5 0 .4.2.6.5.6.4 0 .6-.2.6-.6zM36.1 43.6c.3 0 .6-.2.6-.6 0-.3-.3-.5-.6-.5s-.5.2-.5.5c0 .4.2.6.5.6zM32.8 41.4c0 .3.2.6.6.6.3 0 .5-.3.5-.6s-.2-.6-.5-.6c-.4 0-.6.3-.6.6zM33.8 48.1c.3 0 .5-.2.5-.5 0-.4-.2-.6-.5-.6s-.6.2-.6.6c0 .3.3.5.6.5zM35.9 47.8c-.3 0-.6.3-.6.6s.3.6.6.6.5-.3.5-.6-.2-.6-.5-.6zM35.4 46.3c.3 0 .6-.2.6-.5 0-.4-.3-.6-.6-.6s-.6.2-.6.6c0 .3.3.5.6.5zM34.6 50.7c0 .3.3.6.6.6s.6-.3.6-.6-.3-.6-.6-.6-.6.3-.6.6zM30.1 43.6c0 .3.3.6.6.6s.6-.3.6-.6-.3-.5-.6-.5-.6.2-.6.5z"/>
    <circle cx="32.5" cy="39.5" r=".6"/>
    <path d="M43.6 37.3c0 .3.2.6.5.6.4 0 .6-.3.6-.6s-.3-.5-.6-.5-.5.2-.5.5z"/>
    <circle cx="41.8" cy="32.4" r=".6"/>
    <path d="M37 35.4c-.3 0-.6.2-.6.6 0 .3.2.5.6.5.3 0 .5-.2.5-.5 0-.4-.2-.6-.5-.6zM40.4 33.2c-.3 0-.6.2-.6.5 0 .4.3.6.6.6s.5-.2.5-.6c0-.3-.2-.5-.5-.5zM42 35c-.2 0-.5.2-.5.5s.3.6.6.6.5-.3.5-.6-.2-.5-.5-.5zM45.1 31.3c0 .3.3.6.6.6s.6-.3.6-.6-.3-.6-.6-.6-.6.3-.6.6zM28.8 46.6c0-.3-.3-.6-.6-.6s-.6.3-.6.6.3.5.6.5.6-.2.6-.5zM24.1 46.8c0 .3.3.5.6.5s.6-.2.6-.5c0-.4-.3-.6-.6-.6s-.6.2-.6.6zM21.2 45.1c-.3 0-.6.3-.6.6s.3.6.6.6.6-.3.6-.6-.3-.6-.6-.6zM25.6 49.5c-.4 0-.6.3-.6.6s.2.5.6.5c.3 0 .5-.2.5-.5 0-.4-.2-.6-.6-.6zM26.8 44.1c-.3 0-.6.3-.6.6s.3.5.6.5.6-.2.6-.5-.3-.6-.6-.6zM23.4 41.3c.3 0 .6-.3.6-.6s-.3-.6-.6-.6-.6.3-.6.6.3.6.6.6zM32.2 45.3c-.3 0-.5.2-.5.6 0 .3.2.5.5.5s.6-.2.6-.5c0-.4-.3-.6-.6-.6zM27.5 41.5c0 .3.2.6.6.6.3 0 .5-.3.5-.6s-.2-.6-.5-.6c-.4 0-.6.3-.6.6zM30.8 48.6c0 .4.3.6.6.6s.6-.2.6-.6c0-.3-.3-.5-.6-.5s-.6.2-.6.5z"/>
    <circle cx="33.7" cy="36.6" r=".6"/>
    <path d="M28.7 35.3c.3 0 .6-.3.6-.6s-.3-.6-.6-.6-.6.3-.6.6.3.5.6.5zM34.3 33c-.3 0-.6.2-.6.5s.3.5.6.5.5-.2.5-.5-.2-.6-.5-.6zM37 32.8c0 .3.2.6.5.6s.6-.3.6-.6-.3-.6-.6-.6-.6.3-.6.6zM24.3 34.9c.3 0 .5-.3.5-.6s-.2-.5-.5-.5c-.4 0-.6.2-.6.5 0 .4.2.6.6.6zM33.7 28.7c.3 0 .5-.2.5-.6 0-.3-.2-.5-.5-.5s-.6.2-.6.5c0 .4.3.6.6.6zM39.3 27.6c-.3 0-.6.2-.6.5s.2.6.6.6c.3 0 .5-.3.5-.6s-.2-.6-.5-.6zM36.7 25.8c-.3 0-.6.3-.6.6s.3.6.6.6.6-.3.6-.6-.3-.6-.6-.6zM44 22.8c-.3 0-.6.2-.6.6 0 .3.3.5.6.5s.5-.2.5-.5c0-.4-.2-.6-.5-.6zM46.2 23.9c0 .3.2.5.6.5.3 0 .5-.2.5-.5 0-.4-.2-.6-.5-.6-.4 0-.6.2-.6.6zM40.8 26c.3 0 .6-.3.6-.6 0-.4-.3-.6-.6-.6s-.5.2-.5.6c0 .3.2.5.5.5zM48 21.2c-.4 0-.6.3-.6.6s.2.6.5.6.6-.3.6-.6-.3-.6-.6-.6zM38.8 23.6c.3 0 .6-.3.6-.6s-.3-.6-.6-.6-.6.3-.6.6.3.6.6.6zM34.1 25.4c.3 0 .6-.2.6-.5s-.3-.6-.6-.6-.6.3-.6.6.3.5.6.5zM29.6 30.3c.3 0 .5-.2.5-.5 0-.4-.2-.6-.5-.6s-.6.2-.6.6c0 .3.3.5.6.5zM31.8 33.1c.3 0 .6-.2.6-.5s-.3-.6-.6-.6-.6.3-.6.6.3.5.6.5zM43.4 29.4c-.3 0-.6.2-.6.6 0 .3.3.5.6.5s.5-.2.5-.6c0-.3-.2-.5-.5-.5zM43.2 26.7c.3 0 .6-.2.6-.6 0-.3-.3-.5-.6-.5s-.6.2-.6.5c0 .4.3.6.6.6zM51.8 23c-.3 0-.6.2-.6.5 0 .4.3.6.6.6s.6-.2.6-.6c0-.3-.3-.5-.6-.5zM47 33.6c-.3 0-.6.3-.6.6s.3.6.6.6.5-.3.5-.6-.2-.6-.5-.6z"/>
    <circle cx="43.8" cy="34.4" r=".6"/>
    <path d="M44.1 31.8c-.3 0-.6.2-.6.5 0 .4.3.6.6.6s.6-.3.6-.6-.3-.5-.6-.5zM36.5 39.2c.3 0 .6-.2.6-.6 0-.3-.3-.5-.6-.5s-.6.2-.6.5c0 .4.3.6.6.6zM25.3 26.9c.3 0 .5-.3.5-.6s-.2-.6-.5-.6c-.4 0-.6.3-.6.6s.3.6.6.6zM22.8 42.5c-.3 0-.6.3-.6.6s.3.6.6.6.6-.3.6-.6-.3-.6-.6-.6zM26.3 39.2c.3 0 .5-.3.5-.6s-.2-.6-.5-.6c-.4 0-.6.3-.6.6s.2.6.6.6zM29.7 37.2c-.3 0-.6.3-.6.6s.3.6.6.6.6-.3.6-.6-.3-.6-.6-.6zM19.6 39.3c-.3 0-.6.2-.6.5 0 .4.3.6.6.6s.5-.2.5-.6c0-.3-.2-.5-.5-.5zM25.2 52.9c0-.3-.3-.6-.6-.6s-.6.3-.6.6.3.6.6.6.6-.3.6-.6zM25.2 55c-.3 0-.6.2-.6.5 0 .4.3.6.6.6s.6-.3.6-.6-.3-.5-.6-.5z"/>
    <circle cx="32.4" cy="62.9" r=".6"/>
    <path d="M23.9 58c-.3 0-.6.2-.6.5 0 .4.3.6.6.6s.6-.2.6-.6c0-.3-.3-.5-.6-.5zM28.4 63.5c-.3 0-.5.3-.5.6s.2.6.6.6c.3 0 .5-.3.5-.6s-.2-.6-.6-.6zM28.8 58.4c0-.3-.3-.6-.6-.6s-.6.3-.6.6.3.6.6.6.6-.3.6-.6zM21 49c-.4 0-.6.3-.6.6 0 .4.2.6.5.6s.6-.2.6-.6c0-.3-.3-.5-.6-.5zM19.3 54c-.3 0-.6.3-.6.6s.3.6.6.6.6-.3.6-.6-.3-.6-.6-.6zM16 47.4c-.3 0-.6.3-.6.6s.3.6.6.6.6-.3.6-.6-.3-.6-.6-.6zM13.4 46c-.3 0-.6.2-.6.5 0 .4.3.6.6.6s.6-.2.6-.6c0-.3-.3-.5-.6-.5zM13.9 40.6c-.3 0-.6.2-.6.6 0 .3.3.5.6.5s.6-.2.6-.5c0-.4-.3-.6-.6-.6zM19.8 35.3c-.3 0-.6.2-.6.6 0 .3.3.5.6.5s.6-.2.6-.5c0-.4-.3-.6-.6-.6zM11.6 34.3c-.3 0-.6.3-.6.6s.3.6.6.6.6-.3.6-.6-.3-.6-.6-.6zM19 29.7c0-.3-.3-.6-.6-.6s-.6.3-.6.6.3.6.6.6.6-.3.6-.6zM18 25.4c0-.3-.2-.6-.5-.6s-.6.2-.6.6c0 .3.3.5.6.5s.6-.2.6-.5zM31.8 22.5c.3 0 .6-.3.6-.6s-.3-.5-.6-.5-.6.2-.6.5c0 .4.3.6.6.6z"/>
    <circle cx="36.6" cy="16.9" r=".6"/>
    <path d="M27.2 21.6c.3 0 .6-.3.6-.6s-.3-.6-.6-.6-.6.3-.6.6.3.6.6.6zM39.6 20.5c.3 0 .6-.3.6-.6s-.2-.6-.6-.6c-.3 0-.5.3-.5.6s.2.6.5.6zM46.5 20.1c.3 0 .5-.3.5-.6s-.2-.5-.5-.5-.6.2-.6.5c0 .4.3.6.6.6zM43.7 21c.3 0 .6-.2.6-.5s-.3-.6-.6-.6-.6.3-.6.6.3.6.6.6zM44.9 15.6c.3 0 .5-.2.5-.6 0-.3-.2-.5-.5-.5-.4 0-.6.2-.6.5 0 .4.2.6.6.6zM47.8 17.4c.4 0 .6-.3.6-.6s-.2-.6-.6-.6c-.3 0-.5.3-.5.6s.2.6.5.6zM50.7 20.3c.3 0 .5-.3.5-.6s-.2-.6-.5-.6-.6.3-.6.6.3.6.6.6z"/>
    <circle cx="52.1" cy="21.3" r=".6"/>
    <path d="M52.3 25.4c0 .3.2.6.6.6.3 0 .5-.3.5-.6s-.2-.5-.5-.5c-.4 0-.6.2-.6.5zM51.9 17.8c.3 0 .6-.2.6-.6 0-.3-.3-.5-.6-.5s-.6.2-.6.6c0 .3.3.5.6.5zM55.2 15.3c.3 0 .5-.2.5-.6 0-.3-.2-.5-.5-.5-.4 0-.6.2-.6.5 0 .4.3.6.6.6zM53.9 19c.3 0 .5-.3.5-.6 0-.4-.2-.6-.5-.6-.4 0-.6.2-.6.6 0 .3.3.5.6.5zM55.4 20c0 .3.3.6.6.6s.6-.3.6-.6-.3-.6-.6-.6-.6.3-.6.6zM59.2 17.6c.3 0 .5-.3.5-.6s-.2-.6-.5-.6-.6.3-.6.6.3.6.6.6zM61.9 16.8c.3 0 .6-.3.6-.6s-.3-.6-.6-.6-.6.3-.6.6.3.6.6.6zM65 19.4c.4 0 .7-.2.7-.5 0-.4-.3-.6-.6-.6s-.6.2-.6.6c0 .3.3.5.6.5zM62 19.5c0 .3.3.6.7.6.3 0 .5-.3.5-.6s-.2-.6-.5-.6c-.4 0-.6.3-.6.6zM66.3 23.2c.4 0 .6-.3.6-.6s-.2-.5-.6-.5c-.3 0-.5.2-.5.5s.2.6.5.6zM70 22.7c.2 0 .5-.2.5-.5 0-.4-.3-.6-.6-.6s-.5.2-.5.6c0 .3.2.5.5.5z"/>
    <circle cx="68.7" cy="23.5" r=".6"/>
    <path d="M73.2 27c.3 0 .6-.2.6-.6 0-.3-.3-.5-.6-.5s-.6.2-.6.5c0 .4.3.6.6.6zM75.1 30c.3 0 .6-.3.6-.6s-.3-.6-.6-.6-.5.3-.5.6.2.6.5.6zM74.9 31.6c0 .3.2.5.5.5.4 0 .6-.2.6-.5 0-.4-.2-.6-.6-.6-.3 0-.5.3-.5.6zM77 34.9c.3 0 .6-.3.6-.6s-.3-.6-.6-.6-.6.3-.6.6.3.6.6.6zM75.5 33.3c-.3 0-.6.2-.6.5s.3.6.6.6.6-.3.6-.6-.3-.5-.6-.5zM77 38.3c0 .3.2.6.5.6.4 0 .6-.3.6-.6s-.2-.6-.6-.6c-.3 0-.5.3-.5.6zM77.9 39.9c0 .3.3.5.6.5s.5-.2.5-.5c0-.4-.2-.6-.5-.6-.4 0-.6.3-.6.6zM78.5 42.6c-.3 0-.6.3-.6.6s.3.6.6.6.6-.3.6-.6-.3-.6-.6-.6zM77.5 47.6c.4 0 .6-.2.6-.5 0-.4-.2-.6-.6-.6-.3 0-.5.3-.5.6s.2.5.5.5zM77.2 45c.3 0 .5-.3.5-.6 0-.4-.2-.6-.5-.6-.4 0-.6.2-.6.6 0 .3.3.5.6.5zM77.8 48.9c-.3 0-.5.2-.5.6 0 .3.2.5.5.5.4 0 .6-.2.6-.5 0-.4-.3-.6-.6-.6zM76.7 42.1c.3 0 .5-.2.5-.5 0-.4-.2-.6-.5-.6-.4 0-.6.2-.6.6 0 .3.2.5.6.5zM76.5 50.6c.4 0 .6-.2.6-.6 0-.3-.2-.5-.6-.5-.3 0-.5.2-.5.5 0 .4.2.6.5.6zM76.6 53c-.3 0-.6.2-.6.5s.3.6.6.6.6-.3.6-.6-.3-.6-.6-.6z"/>
    <path d="M75.8 52.3c.3 0 .6-.2.6-.5 0-.4-.3-.6-.6-.6s-.5.1-.5.4a.6.6 0 0 0-1-.5V51l-.1-.5h.4c0 .3.2.5.5.5s.6-.2.6-.6a.6.6 0 0 0-.8-.5v-.1l.2-.5c0-.2 0-.3-.2-.4.3 0 .6-.3.6-.6V48l.3.1c.3 0 .6-.2.6-.6 0-.3-.3-.5-.6-.5l.2-.5a.6.6 0 0 0 1.1-.2c0-.3-.2-.5-.6-.5-.3 0-.5.2-.5.5 0-.2-.3-.4-.6-.4l-.3.2V45.9l.3.1c.3 0 .5-.2.6-.5 0 .2.2.3.4.3.3 0 .6-.3.6-.6s-.3-.6-.6-.6-.5.3-.5.5a.6.6 0 0 0-.7-.2l.1-.4c0-.3-.2-.5-.5-.5h-.2v-.1c0-.2-.1-.4-.3-.5l.1-.3h.2v.3c0 .3.2.6.5.6l.4-.2v.3c0 .3.2.6.5.6s.6-.3.6-.6-.3-.6-.6-.6c-.1 0-.3 0-.4.2l.1-.3-.1-.4h.2c.3 0 .6-.2.6-.5s-.3-.6-.6-.6-.5.2-.6.5a.6.6 0 0 0-.7-.4v-.5c.2 0 .3-.3.3-.5 0-.3-.2-.6-.6-.6 0 0-.2 0-.3.2v-.2c0-.2 0-.4-.2-.5l.1-.2a.6.6 0 0 0 .9.6c0 .3.2.5.5.6-.2 0-.4.2-.4.5s.3.6.6.6.5-.3.5-.6-.2-.6-.5-.6c.2 0 .4-.3.4-.5a.6.6 0 0 0-.8-.5c0-.3-.2-.5-.4-.6l.2-.4c0-.3-.3-.6-.6-.6l-.4.2s0-.2-.2-.3c.4 0 .7-.2.7-.6 0-.3-.3-.5-.6-.5s-.6.2-.6.5c0 .2 0 .3.2.4-.4 0-.7.3-.7.6a.6.6 0 0 0-1-.2.6.6 0 0 0-.8-.6v-.2c0-.2 0-.5-.3-.5.2 0 .4-.3.4-.5l.3.1c-.2.1-.4.3-.4.5 0 .3.3.6.6.6s.6-.3.6-.6-.2-.5-.5-.5c.2-.1.3-.3.3-.6 0-.2-.2-.4-.4-.5.2 0 .4-.3.4-.6 0-.2-.2-.4-.4-.5.4 0 .6-.2.6-.6 0-.3-.2-.5-.5-.5-.4 0-.6.2-.6.5s.2.5.4.6a.6.6 0 0 0-.2 1.1c-.2 0-.4.2-.4.4h-.3c-.3 0-.6.2-.6.5s.2.5.4.5c-.3.1-.5.3-.5.6 0 .1 0 .3.2.4l-.3-.1c-.3 0-.6.2-.6.6 0 .2.2.4.4.5 0 .4.2.6.5.6a.6.6 0 0 0 .1 1l-.1.4h-.3c-.3 0-.5.2-.5.5 0 .4.2.6.5.6h.3c-.2 0-.3.2-.3.4v.2a.6.6 0 0 0-.4 0v-.4c0-.3-.2-.6-.5-.6s-.5.3-.5.6l-.3-.1c-.3 0-.6.3-.6.6s.3.5.6.5.6-.2.6-.5H68.8v.4c0 .3.2.5.5.5.2 0 .4 0 .5-.2v.2c0 .3.1.5.3.6l-.1.4c0 .2.1.4.4.5h-.1c-.3 0-.6.3-.6.6s.3.5.6.5.6-.2.6-.5-.2-.5-.4-.6c.3 0 .6-.2.6-.5s-.2-.5-.4-.6l.1-.2c.1.2.3.3.5.3v.4c0 .3.2.6.5.6h.2v.2a.6.6 0 0 0-.5-.3.6.6 0 0 0-.4 1l-.1.4c0 .3.2.6.6.6.2 0 .4-.2.5-.5l.1.3c-.3 0-.5.2-.5.5 0-.2-.3-.4-.5-.4a.6.6 0 0 0-.1 1.2c-.2 0-.3.1-.4.3l-.2-.1.1-.3c0-.3-.3-.5-.6-.5s-.5.2-.5.5.1.5.4.6l-.1.2c0 .4.2.6.6.6.2 0 .4-.1.5-.4l.1.1a.5.5 0 0 0 0 .5h-.3l-.4.1h-.1c0-.3-.3-.6-.6-.6s-.6.2-.6.5a.6.6 0 0 0-.7-.3c0-.1-.3-.3-.5-.3-.3 0-.6.3-.6.6s.3.5.6.5h.2l.1.2c-.2.1-.3.3-.3.6h-.3l.1-.3c0-.3-.2-.6-.5-.6h-.2a.6.6 0 0 0 0-1c0-.3-.2-.6-.5-.6s-.6.3-.6.6c0 .2.1.4.3.5 0 .4.2.6.5.6h.2a.6.6 0 0 0 0 1h-.1c-.3 0-.6.2-.6.5l-.2.1v-.2c0-.4-.2-.6-.5-.6s-.6.2-.6.6c0 .3.3.5.6.5l.4-.1-.1.3a.6.6 0 0 0-.4-.1c-.1 0-.3 0-.4.2V52c0-.3-.2-.5-.6-.5l.2-.4c.3 0 .6-.3.6-.6s-.2-.5-.6-.5c-.3 0-.5.2-.5.5h-.1a.6.6 0 0 0-.5.7.6.6 0 0 0-.4-.1h-.2c.2 0 .3-.3.3-.5 0-.3-.2-.6-.5-.6-.4 0-.6.3-.6.6s.2.6.6.6h.1c-.2 0-.3.2-.3.4s0 .3.2.4h-.3c-.3 0-.5.1-.6.3a.6.6 0 0 0-.4-.1c-.3 0-.6.2-.6.5 0-.3-.2-.6-.5-.6l-.4.2v-.2c0-.3-.2-.6-.5-.6s-.6.3-.6.6.3.5.6.5h.3V53a.5.5 0 0 0-.3-.1c-.2 0-.4 0-.5.2 0-.3-.2-.6-.6-.6l-.2.1c0-.3-.3-.6-.6-.6s-.6.3-.6.6a.6.6 0 0 0 .9.5c0 .3.2.6.5.6h.1l-.2.4v.2c0-.4-.3-.6-.6-.6l-.4.1v-.2c0-.3-.2-.6-.5-.6s-.6.3-.6.6.3.6.6.6c.1 0 .3 0 .4-.2v.2c0 .3.2.6.5.6 0 .2.1.3.2.3h-.2c-.3 0-.5.2-.5.5l-.3-.2c.2 0 .4-.2.4-.5s-.3-.5-.6-.5h-.3v-.1c0-.4-.3-.6-.6-.6s-.5.2-.5.6a.6.6 0 0 0 .9.4v.4a.6.6 0 0 0-1 .2v-.1c0-.2-.1-.4-.3-.5l.2-.4c0-.3-.2-.6-.6-.6-.3 0-.5.3-.5.6 0 .2 0 .4.2.5l-.1.4c0 .2 0 .4.3.5-.3 0-.5.3-.5.6s.2.5.5.5c.2 0 .4 0 .5-.2v.3c-.2 0-.5.2-.5.5 0-.2-.3-.3-.5-.3a.6.6 0 0 0-.6.6H53c-.3 0-.5.2-.5.6 0 .3.2.5.5.5h.3c0 .3.2.5.4.6-.2 0-.4.3-.4.5v.2h-.1c-.3 0-.5.1-.6.4v-.1c0-.3-.2-.6-.5-.6s-.6.3-.6.6v.1a.6.6 0 0 0-1 .3c0 .4.2.6.5.6.4 0 .6-.2.6-.6v-.1l.5.2c.2 0 .4-.1.5-.4v.1c0 .3.3.6.6.6l-.2.4c0 .3.2.6.5.6.2 0 .3 0 .5-.2 0 .2.2.4.5.4a.6.6 0 0 0 .4 1h.2c0 .3.2.5.6.5.3 0 .5-.2.5-.5 0-.4-.2-.6-.5-.6h-.2v-.2h.2c.3 0 .5-.1.6-.4h.2a.6.6 0 0 0 0 1 .6.6 0 0 0 .3 1c.1.1.3 0 .4 0 0 .2.2.5.5.5s.6-.3.6-.6a.6.6 0 0 0-1-.4c0-.2-.1-.4-.3-.5l.2-.1c0 .2.3.4.5.4l.4-.1c0 .3.2.5.4.6v.2c0 .3.2.6.5.6s.6-.3.6-.6V64l.4.2a.6.6 0 0 0 .3-1.1l.1-.4c0-.3-.2-.6-.5-.6s-.5.2-.6.4v-.3c.3 0 .5 0 .6-.3 0 .2.2.3.4.3h.1c0 .4.3.6.6.6-.3 0-.5.3-.5.6s.3.5.6.5c-.3.1-.4.3-.4.6-.1-.2-.3-.3-.6-.3s-.5.2-.5.6v.1a.6.6 0 0 0-.4-.1c-.3 0-.5.3-.5.6s.2.5.5.5h.3v.2c0 .3.2.5.6.5.3 0 .5-.2.5-.5s-.2-.6-.5-.6h-.3V65.3l.3.1c.3 0 .6-.2.6-.6a.6.6 0 0 0 1-.2c.1.3.4.4.6.4a.6.6 0 0 0 .6-.7h.2l.3-.1v.1c0 .3.2.6.6.6.3 0 .5-.3.5-.6s-.2-.6-.5-.6c-.2 0-.3 0-.4.2v-.4l.3.1c.2 0 .4 0 .5-.3l.3.1h.3v.2c0 .3.2.6.5.6s.6-.3.6-.6-.3-.6-.6-.6l-.3.1v-.2a.6.6 0 0 0-.7-.6V62h.1a.6.6 0 0 0 .5-.8c.1.2.3.2.5.2s.3 0 .4-.2a.6.6 0 0 0 .8.6.6.6 0 0 0 .4 1c.3 0 .6-.3.6-.6s-.3-.6-.6-.6h-.2l.1-.3a.6.6 0 1 0 .9-.7c.2 0 .4-.2.4-.5 0 .3.3.5.6.5s.6-.2.6-.5V60l.3.1c.3 0 .6-.2.6-.5v-.1l.4.2a.6.6 0 0 0 .1-1.2c.3 0 .4-.2.4-.5v-.3l.3.1c.3 0 .6-.2.6-.5s-.2-.6-.5-.6c.2 0 .3-.3.3-.5.1.2.3.3.5.3l-.2.5c0 .3.1.5.3.5h-.2c-.3 0-.5.3-.5.6s.2.6.5.6c.4 0 .6-.3.6-.6 0-.2-.1-.4-.3-.5h.1c.3 0 .6-.2.6-.6 0-.3-.2-.5-.6-.5a.6.6 0 0 0 0-1c.2-.1.4-.3.4-.6s-.3-.5-.6-.5l-.1-.4h.1c.3 0 .6-.2.6-.4h.3c.3 0 .6-.2.6-.5V53l.3.1-.1.3c0 .3.1.5.4.6h-.1c-.2 0-.4 0-.5.3 0-.3-.3-.6-.6-.6s-.6.3-.6.6.3.6.6.6c.2 0 .4-.2.5-.4 0 .3.3.6.6.6s.6-.3.6-.6c0-.2-.2-.4-.4-.5.4 0 .6-.3.6-.6s-.2-.5-.5-.5l.1-.3c0-.3-.2-.5-.4-.6.3 0 .5-.1.6-.4 0 .4.3.6.6.6zm-.5-9.5.1.2h-.2v-.2zM74 39.4l-.2.2v-.3l.2.1zm-11 13a.6.6 0 0 0 .5-.8l.4.2a.6.6 0 0 0-.1.6l-.3-.1c-.3 0-.6.2-.6.5v.3H62.7l.2-.4c0-.2 0-.3-.2-.4h.3zm-.4 9.1-.2-.2c.2 0 .4-.2.4-.4h.2c-.2.1-.4.3-.4.6zm0-1.6v.1l-.1.3h-.3v-.1l.4-.3zm-.2-4.7h.1v.2-.2zm.3-1V54.5c-.1-.2-.3-.3-.6-.3l.2-.3.4.2zm-.9-1.2c.1.2.3.2.4.2h.2l-.2.3c0-.2-.2-.3-.4-.3V53zm-.6 6.5.1-.1h.2v.5h-.1c0-.2 0-.3-.2-.4zm.4-3.5zm0 5h.1l.3.3h-.2s0-.2-.2-.3zm.1-6.7zm0 .7v.1l-.3.3v-.2l.2-.2zm-.3 2.2v.1-.1zm0-1.6v.1zm-.1 2.7h.2l-.3.2h-.2l.3-.2zm-1.7-2.8h.3l-.1.3-.3-.2.1-.1zm-.5-1.2.2.3h-.1c-.2 0-.4 0-.5.2.2-.1.4-.3.4-.5zm-.5-.8zm-.5 2c.2 0 .4-.2.5-.3 0 .2.1.3.3.4a.6.6 0 0 0-.5-.1l-.4.1v-.2h.1zm.3 2.5-.3-.2H58.5v.2zm0 1.3zm-.5-3.2c0 .3.2.5.4.5l-.4.1c0-.2 0-.4-.2-.5h.2zm-.2 1.1c0 .2.1.4.3.5h-.4l-.1-.4.2-.1zm.2 1.6h.3v.2a.6.6 0 0 0-.5-.1c-.3 0-.5.2-.5.5l-.3-.2c.3 0 .5-.3.5-.5l.4.1zm-1-1.7V57v.1zm.1 3.1v.1zm.3.8h.7l-.2.4a.6.6 0 0 0-.4-.2c-.2 0-.4.2-.5.4v-.2c.2 0 .3-.2.4-.4zm0-1v-.2l.1.1h-.1zm0-1.7-.1-.1h.1v.1zm-.2-2.2h.1c-.2.2-.4.4-.4.6v.1l-.2-.3c.2 0 .4-.2.5-.4zm-.6 1.5c0 .2.1.4.3.5-.3 0-.5.3-.5.6l-.3-.2c.2-.1.3-.3.3-.6v-.3h.2zm-2-1.9c.2 0 .4-.1.4-.3 0 .3.3.6.6.6s.6-.3.6-.6v-.1l.2.2c-.2 0-.3.2-.3.5 0 .2 0 .4.3.5-.3 0-.5.3-.5.5v.4c-.2 0-.4 0-.5.2v-.4c.2 0 .5-.3.5-.6a.6.6 0 0 0-1-.4c0-.2-.2-.4-.3-.5zm.7 2.5-.2-.2.2-.2v.4zm-1 1.4c0-.1 0-.2-.2-.2l.4-.5.3.2c-.2 0-.4.2-.4.5zm-.7-1.2v-.2h.2c.3 0 .5-.2.5-.5l.4.3c-.2 0-.4.3-.4.5a.6.6 0 0 0-.7-.1zm.4 3c0-.2-.2-.3-.5-.3l.2-.5v-.2h.5l-.2.3c0 .3.2.5.4.5l-.4.2zm.3-1.2.1-.3a.6.6 0 0 0 .9.2v.4l-.1.1a.6.6 0 0 0-.9-.4zm.9 1.9v.2H55l.1-.5c0-.2-.1-.5-.3-.5l.4-.2c0 .2.2.4.4.4-.2.1-.3.3-.3.6zm.3-2.4c0-.4-.2-.6-.5-.6.3-.1.4-.3.4-.6v-.2l.3.2c-.2 0-.3.3-.3.5 0 .3.3.6.6.6s.5-.3.5-.6l.2.2c-.2 0-.4.3-.4.6a.6.6 0 0 0-.8-.1zm.4 1.8zm.4-.7v.3h-.2v-.4c.2-.1.3-.3.3-.6l.3.2c-.2 0-.4.3-.4.5zm2 2.2v-.1zm-.1-.4a.6.6 0 0 0-.5-.2c-.2 0-.3 0-.4.2 0-.3-.3-.4-.6-.4l.2-.3c0 .3.3.5.6.5s.5-.2.6-.5l.4.2c-.2 0-.3.3-.3.5zm.2-2.6-.3.1-.1-.1.3-.3.2.4zm0-1.5.1-.2v-.1l.2.2h-.2zm.3 3.5h.1zm.3-.8-.2-.2.1-.2.1.4zm.2 1.5c0 .2.2.4.3.5l-.2.4v.2l-.2-.2V63l.2-.3zm.3-2.4c-.3 0-.4.1-.5.3l-.2-.4c.3 0 .4-.1.5-.3l.2.4zm-.2-1V59h.1l-.1.3zm0-1.8a.6.6 0 0 0-.4-.1c.3 0 .6-.3.6-.6v-.1l.3.3c-.3 0-.4.2-.4.5zm.5.6h.1v.2l-.1-.2zm0 .7.1-.3s0 .2.2.3H59.8zm.1 1.6h.1v.2l-.1-.2zm0 .7.1-.3.2.3H60zm.9-6.2h-.3c0-.1 0-.3-.3-.4v-.1h.5v.5zm-.3 1.6H60.8c-.3.1-.5.4-.5.6l-.2-.1c.3 0 .4-.3.4-.5zm0 1zm-.1 2.1v-.3c0-.1 0-.3-.2-.4h.2c0 .2 0 .4.2.5l-.2.2zm.4 2.1zm0-.3-.2-.2.2-.1v.3zm-.2-8c-.2 0-.4 0-.5.3l-.3-.1v-.4l.4.2c.3 0 .5-.3.5-.5 0 .3.3.5.6.5l-.1.3.1.3H61V54c0-.3-.2-.6-.5-.6zm.5 7 .2.4-.3.1.1-.3v-.2zm0 2.4a.6.6 0 0 0 .3-.8l.2-.1c0 .3.3.5.6.5v.1H62c-.3 0-.6.2-.6.5a.6.6 0 0 0-.4-.2zm1.3.9v.1h-.2c-.3 0-.5.3-.5.6 0-.3-.3-.5-.6-.5.3 0 .5-.3.5-.5l.4.2c.2 0 .5-.2.5-.5h.2l-.3.6zm.4-1.7h-.1v-.2l.5.2v.4c0-.2-.2-.4-.4-.4zm.2 1.1.2-.2.1.3-.3-.1zm.3-.4v-.3.2zm0-1.8.2-.2v.3l-.3-.1zm.2-7.3h-.1v-.3h.2l-.1.3zm0 6.5.4.1-.3.2V60zm.4 1.5h-.1v-.2l-.1-.2.3.1V61.6zm0-8.4.1-.2v.1zm.2 7 .1-.1v.1h-.1zm0-7.3V52.6h.1l-.2.3zm.6-.4v.1zm-.3 7v-.2l.1.2zm.2-5.8h.3v.2h-.3v-.2zm.3 7.3v.2l-.3-.2v-.5h.1c.2 0 .4 0 .5-.2v.1c-.1.1-.3.3-.3.6zm.4-1.2.2-.4.2.2-.4.2zm1.7-8.6.3-.1v.7-.2c0-.2-.2-.3-.3-.4zm.1 6.5zm-.1.5zm-.5-1h.2v.1h-.2v-.1zm-.3 1c0 .2.2.2.3.2l-.2.3-.2-.1V58.3zm-.4-5.3v-.3l.3.1-.3.2zM66 61v-.3h.1l.3.1-.4.2zm.5-1.3-.3.1H66c.2 0 .4-.3.5-.5h.1l-.1.4zm.5 1.5c0-.2-.2-.3-.4-.4.3 0 .5-.2.5-.5l.3.4c-.2 0-.4.2-.4.5zm7.7-16v-.1h.2l-.1.3v.2l-.1-.1v-.3zm-.2 2.5c.4 0 .6-.3.6-.6h.3c-.2.2-.2.3-.2.5v.2l-.3-.1c-.2 0-.4 0-.5.2v-.2zm-.2.6.2.4c-.2 0-.4 0-.5.2v-.4c.1 0 .2 0 .3-.2zm-.1-3.7-.2-.2h.2v.2zm-.2-2.3h.2l-.1.2H74v-.2zm0 6.8v.2h-.3l.2-.2zm0 1.3h-.2.1zm-.4-11.5v.2l-.1-.1.1-.1zm0 2v.1l.1.3-.3-.3.3-.1zm-.3 10.3.2.2-.2.1c-.1-.2-.3-.3-.5-.3h.5zm-.4-7.8h.1v.1-.1zm0-1.4v.4l-.2-.1.2-.3zm.1 3.2v-.4l.1.3zm-.3-4.2.2-.3.2.2-.4.1zm0-2.3c0 .1.1.3.3.3l-.3.5c0-.2 0-.4-.2-.5l.1-.3zm0 .8c0 .2.1.4.3.5l-.2.2-.3-.2.2-.5zm-.4 5zm0-.4v.1L72 44h.2zm-.2-4-.2.1v-.3l.2.2zm-.1 3-.2.3v-.2l.2-.1zm0-2.1h-.1c-.1-.1-.3-.3-.5-.3l.4-.2c0 .2 0 .4.2.5zm-.5-2.4v.1-.1zM70 38h.6v.7a.6.6 0 0 0 .5 1l-.3.2c0-.2-.3-.4-.5-.4a.6.6 0 0 0-.2-1v-.1L70 38zm.2 3.5h.2l.4-.1s0 .2.2.3c-.3 0-.4 0-.5.2h-.6c.2 0 .2-.2.3-.4zm.5 1.8a.6.6 0 0 0-.4-.3c-.2 0-.4.1-.5.3v-.4h.4c.2 0 .3 0 .4-.2l.3.1h.2v.1l-.4.4zm.2-2.4c0-.2-.1-.4-.3-.5l.1-.2c0 .3.3.5.5.5l-.2.2zm.4-1.3c.2 0 .3-.3.3-.5h.1a.5.5 0 0 0 0 .6.6.6 0 0 0-.4-.1zm.2 2.5-.2-.3c.3 0 .4 0 .5-.2v.5H71.5zm.2 1.8.1-.3.2.4-.3-.1zm.4 2.4-.2-.4.1-.4.3.2v.2l-.2.3zm.1 5.4v.1-.1zm-.5-2.8h.1-.1zm.3 3.8H72v-.1l.1.1zm-.3 1h.3l.1.1H72l-.3.1v-.2h.1zm0-6.2.2.3c-.2 0-.3.1-.4.3l-.2-.1c.2 0 .4-.3.4-.5zm-.5 8.2a.6.6 0 0 0-.3.7h-.3l-.4.1a.6.6 0 0 0 0-.4h.2c.3 0 .5-.2.5-.5h.3zm-.6-5H70.9v.2l-.4-.2zm.1 2.6zm-.5 1.5c.1.1.3.3.5.3v.1a.6.6 0 0 0-.3-.2l-.3.1-.1-.2.2-.1zm-.2-1.2v.1zm0 3.1v.2-.2zm-1.3-6.3c.2 0 .3-.2.4-.5 0 .2.2.3.3.3a.6.6 0 0 0-.2 1H69l-.3.1.2-.5c0-.1 0-.3-.2-.4zm.7 4.2h-.1V54.3l.1.3zm-.7.6h.2v.1h-.2zm-.8.7v.1zm-.3-3.9zm.7 8.1c0-.3-.2-.5-.5-.5l-.1-.1.3-.2c0 .2.3.4.5.4l-.2.4zm-.2-1.7v.3l-.2-.3.2-.4-.1-.3h.4l.1.1c-.2 0-.4.3-.4.6zm.8-1.6h-.3c.2 0 .3-.2.4-.4l.5.5-.2.1a.6.6 0 0 0-.4-.2zm.7 1.1c-.2 0-.3.2-.4.3L69 58l.3-.2.3.2zm-.4 1.7v.2a.6.6 0 0 0-.3-.2l.2-.4-.1-.4.2-.2c0 .2.2.4.4.4-.2.1-.4.3-.4.6zm.5-3.8h-.3v-.1l.4-.1v.2h-.1zm-.1-4.3-.2-.2.5-.1v.1c-.2 0-.3.1-.3.2zm.6 6.2v.5l-.3-.3c.1 0 .3 0 .4-.2zm0 1.4h-.3c.2-.2.4-.4.4-.6v-.2l.3.3c-.2 0-.4.3-.4.5zm.5-1.7c-.2 0-.3.1-.4.3v-.3h.3l.4-.1.1.3a.6.6 0 0 0-.4-.2zm.5-.5v-.2h.1l-.1.2zm.1-2.4v-.3h.1a.6.6 0 0 0 0 .4zm.2-2v.1zm.4 3.4-.4-.3a.6.6 0 0 0 .4-.7c0 .2.2.4.4.5-.2.1-.4.3-.4.5zm2-3.2a.6.6 0 0 0-.4-.2c-.3 0-.6.2-.6.5h-.6l-.2-.2.4.1c.3 0 .5-.3.5-.6l.6.2h.3v.2zm.5-.7-.3.1V52c0-.3-.1-.5-.3-.5l.3-.1c0 .3.2.6.4.6z"/>
    <path d="M74.2 55.5c0-.3-.3-.5-.6-.5s-.5.2-.5.5c0 .4.2.6.5.6.4 0 .6-.3.6-.6zM74.3 56.4c-.3 0-.5.2-.5.5s.2.6.5.6c.4 0 .6-.3.6-.6s-.3-.5-.6-.5zM71.8 59.5c-.3 0-.6.2-.6.5 0 .4.2.6.6.6.3 0 .5-.2.5-.6 0-.3-.2-.5-.5-.5zM70.5 60.9c0-.3-.2-.6-.5-.6s-.6.3-.6.6.3.6.6.6.5-.3.5-.6zM70.6 61.8c-.3 0-.6.3-.6.6s.3.6.6.6.5-.3.5-.6-.2-.6-.5-.6zM68.2 63.4c-.4 0-.6.2-.6.6 0 .3.2.5.6.5.3 0 .5-.2.5-.5 0-.4-.2-.6-.5-.6zM66.8 63c-.3 0-.6.3-.6.6s.2.5.6.5c.3 0 .5-.2.5-.5 0-.4-.2-.6-.5-.6zM65 64.2c-.4 0-.6.3-.6.6s.2.5.6.5c.3 0 .5-.2.5-.5s-.2-.6-.5-.6zM63.3 66.7c-.3 0-.6.2-.6.6 0 .3.3.5.6.5s.6-.2.6-.5c0-.4-.3-.6-.6-.6zM61.7 65c-.3 0-.6.3-.6.6s.3.6.6.6.5-.3.5-.6-.2-.6-.5-.6zM63.2 66.3c.3 0 .6-.3.6-.6s-.3-.6-.6-.6-.6.3-.6.6.3.6.6.6zM61.5 66.3c-.3 0-.6.2-.6.5 0 .4.3.6.6.6s.5-.2.5-.6c0-.3-.2-.5-.5-.5zM59.5 66.9c0-.3-.2-.6-.6-.6-.3 0-.5.3-.5.6s.2.5.5.5c.4 0 .6-.2.6-.5zM59.5 67.5c-.3 0-.5.3-.5.6s.2.5.5.5c.4 0 .6-.2.6-.5 0-.4-.2-.6-.6-.6zM56.7 67.3c-.3 0-.6.2-.6.5 0 .4.3.6.6.6s.6-.3.6-.6-.3-.5-.6-.5zM56.7 68.8c-.3 0-.6.3-.6.6s.3.6.6.6.5-.3.5-.6-.2-.6-.5-.6zM54.7 68c-.3 0-.6.2-.6.5s.3.6.6.6.5-.3.5-.6-.2-.6-.5-.6zM53.2 69.6c-.3 0-.6.2-.6.5 0 .4.3.6.6.6s.6-.2.6-.6c0-.3-.3-.5-.6-.5zM52.1 68c-.3 0-.5.2-.5.6 0 .3.2.5.5.5.4 0 .6-.2.6-.6 0-.3-.2-.5-.6-.5zM50.5 69c-.3 0-.6.2-.6.5s.3.6.6.6.6-.3.6-.6-.3-.6-.6-.6zM50.9 67.8c0-.3-.3-.6-.6-.6s-.6.3-.6.6.3.5.6.5.6-.2.6-.5zM48.5 69c0-.4-.3-.6-.6-.6s-.6.2-.6.6c0 .3.3.5.6.5s.6-.2.6-.5z"/>
    <circle cx="48.4" cy="70.3" r=".6"/>
    <path d="M45.9 69c-.4 0-.6.2-.6.5 0 .4.2.6.6.6.3 0 .5-.2.5-.6 0-.3-.2-.5-.5-.5zM46.2 67.4c-.3 0-.6.3-.6.6s.3.5.6.5.6-.2.6-.5c0-.4-.3-.6-.6-.6zM49.5 65.4c.3 0 .5-.2.5-.5 0-.4-.2-.6-.5-.6-.4 0-.6.2-.6.6 0 .3.2.5.6.5zM50.5 66.5c.4 0 .6-.3.6-.6s-.2-.6-.6-.6c-.3 0-.5.3-.5.6s.2.6.5.6zM43.2 69.4c-.4 0-.6.2-.6.5s.2.6.6.6c.3 0 .5-.3.5-.6s-.2-.5-.5-.5zM40.6 67.2c-.3 0-.5.2-.5.6 0 .3.2.5.5.5.4 0 .6-.2.6-.6 0-.3-.2-.5-.6-.5zM43.7 67.2c-.3 0-.6.3-.6.6s.3.6.6.6.6-.3.6-.6-.3-.6-.6-.6z"/>
    <circle cx="42.2" cy="66.8" r=".6"/>
    <path d="M40.5 66.4c0-.3-.2-.6-.6-.6-.3 0-.5.3-.5.6s.2.5.5.5c.4 0 .6-.2.6-.5zM38.8 68c-.4 0-.6.3-.6.6s.2.6.5.6c.4 0 .6-.3.6-.6s-.2-.6-.5-.6zM34 67.2c-.3 0-.6.2-.6.5s.3.6.6.6.6-.3.6-.6-.3-.5-.6-.5zM35.8 65c-.3 0-.6.2-.6.6 0 .3.3.5.6.5s.5-.2.5-.6c0-.3-.2-.5-.5-.5zM29.5 60.8c-.3 0-.5.2-.5.6 0 .3.2.5.5.5.4 0 .6-.2.6-.5 0-.4-.3-.6-.6-.6zM36.3 63.3c-.3 0-.5.2-.5.6 0 .3.2.5.5.5s.6-.2.6-.5c0-.4-.3-.6-.6-.6z"/>
    <circle cx="32.7" cy="65.6" r=".6"/>
    <path d="M38.4 65.6c0-.3-.3-.5-.6-.5s-.6.2-.6.5c0 .4.3.6.6.6s.6-.2.6-.6zM76.3 49c0-.2-.2-.5-.5-.5s-.6.3-.6.6.3.5.6.5.5-.2.5-.5zM69.7 40c0-.3-.3-.5-.6-.5s-.5.2-.5.5c0-.3-.3-.5-.6-.5v-.2c0-.3-.2-.5-.5-.5s-.6.2-.6.5.3.6.6.6v.2a.6.6 0 0 0-.6-.2c-.3 0-.5.2-.5.6 0 .3.2.5.5.5.4 0 .6-.2.6-.5v-.1c.1.1.3.3.5.3.3 0 .5-.3.6-.6 0 .2 0 .3.2.4h-.2c-.3 0-.5.2-.5.5 0 .4.2.6.5.6.4 0 .6-.3.6-.6 0-.2-.1-.3-.3-.4h.2c.3 0 .6-.3.6-.6zM75.4 39.7c.3 0 .5-.2.5-.6 0-.3-.2-.5-.5-.5s-.6.2-.6.5c0 .4.3.6.6.6zM66.7 42.3c-.3 0-.6.2-.6.5s.3.6.6.6.6-.3.6-.6-.3-.5-.6-.5zM60.4 38.4c0-.3-.3-.6-.6-.6s-.6.3-.6.6.3.6.6.6.6-.3.6-.6zM58.3 39.5c0 .3.2.5.6.5.3 0 .5-.2.5-.5 0-.4-.2-.6-.5-.6-.4 0-.6.3-.6.6zM65.8 33c-.3 0-.6.3-.6.6s.3.6.6.6.6-.3.6-.6-.3-.6-.6-.6zM62.6 40.2c.3 0 .5-.3.5-.6s-.2-.6-.5-.6c-.4 0-.6.3-.6.6s.2.6.6.6zM61.8 39c0-.3-.2-.6-.5-.6-.4 0-.6.3-.6.6s.2.6.6.6c.3 0 .5-.3.5-.6z"/>
    <circle cx="62.9" cy="42.3" r=".6"/>
    <path d="M47.8 56c0-.2-.2-.5-.5-.5-.4 0-.6.3-.6.6s.2.5.6.5c.3 0 .5-.2.5-.5zM48 54.5c-.2 0-.5.3-.5.6s.3.5.6.5.5-.2.5-.5-.2-.6-.5-.6zM64.1 46.4c.3 0 .6-.3.6-.6s-.3-.5-.6-.5-.6.2-.6.5.3.6.6.6zM54 37.8c-.3 0-.6.3-.6.6s.2.6.6.6c.3 0 .5-.3.5-.6s-.2-.6-.5-.6zM52.3 35.9c0 .3.3.6.6.6s.6-.3.6-.6-.3-.6-.6-.6-.6.3-.6.6zM54.3 34.5c-.3 0-.6.2-.6.5 0 .4.3.6.6.6s.6-.2.6-.6c0-.3-.3-.5-.6-.5zM56.9 38.8c0 .3.2.6.6.6.3 0 .5-.3.5-.6s-.2-.5-.5-.5c-.4 0-.6.2-.6.5zM60.4 32.2c0 .3.2.6.6.6.3 0 .5-.3.5-.6s-.2-.5-.5-.5c-.4 0-.6.2-.6.5z"/>
  </g>
  <path d="M81 14.2h11.6c6.7 0 11.1 3.6 11.1 9.9 0 6.7-4.6 10.2-11.3 10.2h-5.2v8.2H81zm11 14.7c3.4 0 5.4-1.6 5.4-4.6 0-3-1.9-4.7-5.4-4.7h-4.8V29H92zM105.1 33.8h6.4c.3 2.5 2 4.2 5.7 4.2 3.2 0 5-1.4 5-3.5s-1.4-2.9-4-3.3l-3.3-.5c-5.9-1-9-3.5-9-8.2 0-5.4 4.1-8.8 11-8.8 6.8 0 10.5 3.2 11.1 8.6h-6.3c-.4-2.2-2.1-3.6-5-3.6-2.8 0-4.5 1.3-4.5 3.3 0 2 1.4 2.8 4 3.2l3.3.6c5.7.9 9 3.3 9 8 0 5.8-4.4 9.2-11.5 9.2-7.2 0-11-3.3-11.9-9.2zM131.6 14.2h6.2v28.3h-6.2z" id="psi-svg-logo-text"/>
</svg>
